<svg width="24" height="16" viewBox="0 0 24 16" fill="none" xmlns="http://www.w3.org/2000/svg">
<g clip-path="url(#clip0_1_622)">
<path d="M21.9348 0H1.99408C0.892778 0 0 0.89543 0 2V14C0 15.1046 0.892778 16 1.99408 16H21.9348C23.0361 16 23.9289 15.1046 23.9289 14V2C23.9289 0.89543 23.0361 0 21.9348 0Z" fill="#016FD0"/>
<path fill-rule="evenodd" clip-rule="evenodd" d="M13.7233 13.3939V7.6925L23.8407 7.70161V9.27651L22.6714 10.5299L23.8407 11.7948V13.4031H21.9737L20.9814 12.3049L19.9963 13.4072L13.7233 13.3939Z" fill="#FFFFFE"/>
<path fill-rule="evenodd" clip-rule="evenodd" d="M14.399 12.7688V8.31995H18.1602V9.34483H15.6168V10.0405H18.0995V11.0483H15.6168V11.7317H18.1602V12.7688H14.399Z" fill="#016FD0"/>
<path fill-rule="evenodd" clip-rule="evenodd" d="M18.1414 12.7687L20.2225 10.5417L18.1413 8.31995H19.7522L21.0239 9.72998L22.2992 8.31995H23.8408V8.35495L21.804 10.5417L23.8408 12.7056V12.7687H22.2837L20.9894 11.3446L19.7084 12.7687H18.1414Z" fill="#016FD0"/>
<path fill-rule="evenodd" clip-rule="evenodd" d="M14.1952 2.63196H16.634L17.4906 4.58281V2.63196H20.5015L21.0207 4.09353L21.5417 2.63196H23.8408V8.33335H11.6904L14.1952 2.63196Z" fill="#FFFFFE"/>
<path fill-rule="evenodd" clip-rule="evenodd" d="M14.6569 3.25134L12.6888 7.69651H14.0387L14.41 6.80635H16.422L16.793 7.69651H18.1765L16.2165 3.25134H14.6569ZM14.8261 5.80878L15.4163 4.39371L16.0061 5.80878H14.8261Z" fill="#016FD0"/>
<path fill-rule="evenodd" clip-rule="evenodd" d="M18.1581 7.69569V3.25061L20.0556 3.25715L21.0319 5.98988L22.0146 3.25061H23.8408V7.69569L22.6657 7.70612V4.65278L21.5564 7.69569H20.4838L19.3515 4.64235V7.69569H18.1581Z" fill="#016FD0"/>
</g>
<defs>
<clipPath id="clip0_1_622">
<rect width="23.9289" height="16" fill="white"/>
</clipPath>
</defs>
</svg>
