<svg width="24" height="17" viewBox="0 0 24 17" fill="none" xmlns="http://www.w3.org/2000/svg">
<g clip-path="url(#clip0_1_655)">
<path opacity="0.2" d="M15.9282 1.56738H1.46939C0.793469 1.56738 0 2.34616 0 3.03677V14.0572C0 14.7478 0.793469 15.5266 1.46939 15.5266H19.8367C20.5127 15.5266 21.3061 14.7478 21.3061 14.0572V8.52493C20.6872 9.08168 19.9228 9.45113 19.102 9.59024V9.64902C19.102 10.1339 18.8376 10.3837 18.3673 10.3837H2.20408C1.73388 10.3837 1.46939 10.1339 1.46939 9.64902V8.91432C1.46939 8.42942 1.73388 8.17963 2.20408 8.17963H15.0833C14.6592 7.70963 14.3416 7.15353 14.1524 6.54941C13.9632 5.94528 13.9068 5.30741 13.9871 4.67945C14.0673 4.0515 14.2823 3.4483 14.6173 2.91117C14.9523 2.37403 15.3995 1.91564 15.9282 1.56738V1.56738Z" fill="#697386"/>
<path d="M14.209 3.77148H0V5.97557H14.018C13.8945 5.23653 13.9602 4.47827 14.209 3.77148V3.77148Z" fill="#697386"/>
</g>
<path d="M18.8124 10.2857C17.4517 10.2857 16.1467 9.74388 15.1845 8.77941C14.2223 7.81493 13.6818 6.50683 13.6818 5.14286C13.6818 3.77889 14.2223 2.47078 15.1845 1.50631C16.1467 0.541835 17.4517 0 18.8124 0C20.1732 0 21.4782 0.541835 22.4404 1.50631C23.4026 2.47078 23.9431 3.77889 23.9431 5.14286C23.9431 6.50683 23.4026 7.81493 22.4404 8.77941C21.4782 9.74388 20.1732 10.2857 18.8124 10.2857ZM16.7748 3.01224H16.1958L14.7812 3.73224V4.46694L15.9026 3.87918V7.27347H16.7822V3.01224H16.7748ZM18.4606 3.6C18.8784 3.6 19.1716 3.8351 19.1716 4.17306C19.1716 4.54041 18.8271 4.79755 18.3287 4.79755H18.1088V5.42204H18.3727C18.9004 5.42204 19.2595 5.68653 19.2595 6.06857C19.2595 6.43592 18.9077 6.68571 18.4093 6.68571C18.0428 6.68571 17.6764 6.56816 17.2952 6.34041V7.0751C17.7057 7.25143 18.1161 7.34694 18.5193 7.34694C19.4794 7.34694 20.1391 6.85469 20.1391 6.14204C20.1391 5.64245 19.8312 5.23837 19.3182 5.07673C19.7579 4.9298 20.0438 4.54041 20.0438 4.09959C20.0438 3.40898 19.4354 2.93878 18.5559 2.93878C18.1594 2.94318 17.7679 3.02816 17.4052 3.18857V3.90857C17.757 3.7102 18.1161 3.6 18.4606 3.6ZM21.627 5.20163C22.162 5.20163 22.5358 5.51755 22.5358 5.92898C22.5358 6.36245 22.162 6.66367 21.627 6.66367C21.3045 6.66367 20.9673 6.56082 20.6228 6.34776V7.10449C20.982 7.26612 21.3484 7.34694 21.7076 7.34694C21.8982 7.34694 22.0741 7.31755 22.2427 7.27347C22.6238 6.64898 22.8437 5.92898 22.8437 5.15755L22.829 4.84898C22.5565 4.68729 22.2441 4.60581 21.9275 4.61388C21.7956 4.61388 21.6563 4.62122 21.5097 4.64327V3.68816H22.5652C22.4736 3.453 22.3608 3.22675 22.228 3.01224H20.7474V5.32653C21.0406 5.25306 21.3338 5.20163 21.627 5.20163Z" fill="#697386"/>
<defs>
<clipPath id="clip0_1_655">
<rect width="23.5102" height="15.4286" fill="white" transform="translate(0 1.56738)"/>
</clipPath>
</defs>
</svg>
