<svg width="24" height="24" viewBox="0 0 24 24" fill="none" xmlns="http://www.w3.org/2000/svg">
<path d="M21.07 10.3L15.07 4.3C14.9295 4.15931 14.7388 4.08018 14.54 4.08H3C2.59 4.08 2.25 4.42 2.25 4.83V12.71C2.25 12.91 2.33 13.1 2.47 13.24L8.47 19.23C8.68467 19.4464 8.9402 19.6179 9.22174 19.7346C9.50328 19.8514 9.80522 19.911 10.11 19.91C10.73 19.91 11.32 19.67 11.75 19.23L11.97 19.01C12.01 19.09 12.05 19.17 12.12 19.23C12.336 19.4461 12.5924 19.6175 12.8747 19.7344C13.157 19.8514 13.4595 19.9115 13.765 19.9115C14.0705 19.9115 14.373 19.8514 14.6553 19.7344C14.9376 19.6175 15.194 19.4461 15.41 19.23L21.06 13.58C21.96 12.68 21.96 11.21 21.06 10.3H21.07ZM10.7 18.17C10.54 18.33 10.34 18.41 10.12 18.41C9.9 18.41 9.69 18.32 9.54 18.17L3.75 12.4V5.58H10.57L16.35 11.36C16.67 11.68 16.67 12.2 16.35 12.52L10.7 18.17ZM20.01 12.52L14.36 18.17C14.04 18.49 13.51 18.49 13.19 18.17C13.1239 18.1054 13.0458 18.0544 12.96 18.02L17.4 13.58C18.3 12.67 18.3 11.2 17.4 10.3L12.68 5.58H14.22L20 11.36C20.32 11.68 20.32 12.2 20 12.52H20.01ZM8.25 8.5C8.25 8.83152 8.1183 9.14946 7.88388 9.38389C7.64946 9.61831 7.33152 9.75 7 9.75C6.66848 9.75 6.35054 9.61831 6.11612 9.38389C5.8817 9.14946 5.75 8.83152 5.75 8.5C5.75 8.16848 5.8817 7.85054 6.11612 7.61612C6.35054 7.3817 6.66848 7.25 7 7.25C7.33152 7.25 7.64946 7.3817 7.88388 7.61612C8.1183 7.85054 8.25 8.16848 8.25 8.5Z" fill="#C2C2C2"/>
</svg>
