<svg width="56" height="55" viewBox="0 0 56 55" fill="none" xmlns="http://www.w3.org/2000/svg">
<path d="M51.375 40.41L32.5869 7.78166C32.1174 6.98228 31.4472 6.31947 30.6426 5.85894C29.838 5.3984 28.927 5.15613 28 5.15613C27.0729 5.15613 26.162 5.3984 25.3574 5.85894C24.5528 6.31947 23.8826 6.98228 23.4131 7.78166L4.62499 40.41C4.17325 41.1832 3.93518 42.0625 3.93518 42.958C3.93518 43.8535 4.17325 44.7329 4.62499 45.5061C5.08847 46.3103 5.75758 46.9767 6.56365 47.4369C7.36973 47.8972 8.28374 48.1347 9.2119 48.125H46.7881C47.7155 48.1339 48.6286 47.896 49.4339 47.4358C50.2391 46.9757 50.9076 46.3096 51.3707 45.5061C51.8231 44.7333 52.0619 43.8541 52.0626 42.9586C52.0634 42.0631 51.8261 41.1835 51.375 40.41ZM48.3951 43.7852C48.2313 44.0646 47.9962 44.2954 47.7138 44.4539C47.4314 44.6125 47.1119 44.6931 46.7881 44.6875H9.2119C8.88808 44.6931 8.5686 44.6125 8.2862 44.4539C8.00381 44.2954 7.76866 44.0646 7.60487 43.7852C7.45651 43.534 7.37825 43.2476 7.37825 42.9559C7.37825 42.6642 7.45651 42.3778 7.60487 42.1266L26.393 9.49826C26.5601 9.22019 26.7963 8.9901 27.0786 8.83036C27.361 8.67062 27.6799 8.58667 28.0043 8.58667C28.3287 8.58667 28.6476 8.67062 28.9299 8.83036C29.2123 8.9901 29.4485 9.22019 29.6156 9.49826L48.4037 42.1266C48.5508 42.3785 48.6275 42.6653 48.626 42.9571C48.6245 43.2488 48.5448 43.5348 48.3951 43.7852ZM26.2812 30.9375V22.3438C26.2812 21.8879 26.4623 21.4508 26.7846 21.1284C27.107 20.8061 27.5441 20.625 28 20.625C28.4558 20.625 28.893 20.8061 29.2153 21.1284C29.5377 21.4508 29.7187 21.8879 29.7187 22.3438V30.9375C29.7187 31.3934 29.5377 31.8305 29.2153 32.1529C28.893 32.4752 28.4558 32.6563 28 32.6563C27.5441 32.6563 27.107 32.4752 26.7846 32.1529C26.4623 31.8305 26.2812 31.3934 26.2812 30.9375ZM30.5781 38.6719C30.5781 39.1818 30.4269 39.6803 30.1436 40.1042C29.8603 40.5282 29.4577 40.8586 28.9866 41.0538C28.5155 41.2489 27.9971 41.3 27.497 41.2005C26.9969 41.101 26.5375 40.8555 26.177 40.4949C25.8164 40.1343 25.5709 39.675 25.4714 39.1749C25.3719 38.6748 25.423 38.1564 25.6181 37.6853C25.8132 37.2142 26.1437 36.8116 26.5677 36.5283C26.9916 36.245 27.4901 36.0938 28 36.0938C28.6837 36.0938 29.3395 36.3654 29.823 36.8489C30.3065 37.3324 30.5781 37.9881 30.5781 38.6719Z" fill="#FFAB00"/>
</svg>
