<svg width="96" height="26" viewBox="0 0 96 26" fill="none" xmlns="http://www.w3.org/2000/svg">
<path d="M8.57527 0.370506C9.68582 0.370506 10.5344 0.496229 11.1212 0.747676C11.7079 0.999121 12.2212 1.27152 12.6613 1.56487C12.9127 1.71155 13.1118 1.8268 13.2584 1.91061C13.4261 1.97347 13.5832 2.0049 13.7299 2.0049C13.9394 2.0049 14.0861 1.88966 14.1699 1.65917C14.2747 1.42867 14.3585 1.08294 14.4214 0.621952H15.1443C15.1233 0.999122 15.0919 1.44963 15.05 1.97347C15.029 2.47637 15.0081 3.14689 14.9871 3.98504C14.9871 4.8232 14.9871 5.92327 14.9871 7.28527H14.2642C14.2014 6.25854 13.9709 5.26323 13.5728 4.29935C13.1956 3.33547 12.6298 2.54971 11.8755 1.94204C11.1421 1.33438 10.1992 1.03055 9.04673 1.03055C7.97808 1.03055 7.08754 1.35534 6.37511 2.0049C5.68363 2.63352 5.3379 3.47167 5.3379 4.51937C5.3379 5.44134 5.56839 6.21663 6.02937 6.84524C6.49036 7.4529 7.11897 8.02914 7.91522 8.57394C8.73242 9.09778 9.65439 9.68449 10.6811 10.3341C11.7288 11.0046 12.6717 11.6751 13.5099 12.3456C14.348 12.9952 15.0081 13.7181 15.49 14.5143C15.972 15.3106 16.2129 16.2745 16.2129 17.406C16.2129 18.768 15.8882 19.8995 15.2386 20.8005C14.61 21.6806 13.7613 22.3406 12.6927 22.7806C11.6241 23.2207 10.4506 23.4407 9.17245 23.4407C7.99903 23.4407 7.06659 23.315 6.37511 23.0635C5.68363 22.8121 5.09693 22.5501 4.61499 22.2777C4.154 21.9844 3.79779 21.8377 3.54634 21.8377C3.3368 21.8377 3.17965 21.953 3.07488 22.1835C2.99107 22.4139 2.91773 22.7597 2.85487 23.2207H2.13196C2.17387 22.7597 2.19482 22.2254 2.19482 21.6177C2.21577 20.9891 2.22625 20.1719 2.22625 19.1661C2.2472 18.1603 2.25768 16.8926 2.25768 15.363H2.98059C3.0644 16.6621 3.2949 17.8774 3.67207 19.0089C4.07019 20.1405 4.66737 21.0519 5.46362 21.7434C6.28082 22.4139 7.35994 22.7492 8.70099 22.7492C9.41342 22.7492 10.0735 22.613 10.6811 22.3406C11.2888 22.0682 11.7812 21.6387 12.1584 21.0519C12.5355 20.4652 12.7241 19.7109 12.7241 18.7889C12.7241 17.9298 12.5146 17.1755 12.0955 16.5259C11.6974 15.8763 11.1316 15.2792 10.3982 14.7344C9.68582 14.1686 8.84767 13.5924 7.88379 13.0057C6.89896 12.3771 5.97699 11.7484 5.11788 11.1198C4.25877 10.4912 3.5673 9.75783 3.04345 8.91967C2.54056 8.08152 2.28911 7.08621 2.28911 5.93375C2.28911 4.65557 2.58247 3.60787 3.16917 2.79068C3.77684 1.97347 4.55213 1.36581 5.49505 0.96769C6.45893 0.569567 7.48567 0.370506 8.57527 0.370506ZM38.9678 0.747676C39.4498 0.768629 40.0679 0.789583 40.8222 0.810536C41.5975 0.83149 42.3624 0.841967 43.1167 0.841967C44.1225 0.841967 45.0759 0.83149 45.9769 0.810536C46.8989 0.789583 47.5484 0.779106 47.9256 0.779106C50.2724 0.779106 52.0221 1.24009 53.1745 2.16206C54.348 3.08403 54.9347 4.26792 54.9347 5.71374C54.9347 6.44712 54.7566 7.1805 54.4003 7.91389C54.0651 8.62632 53.5098 9.27589 52.7345 9.8626C51.9592 10.4284 50.9325 10.8789 49.6543 11.2141V11.277C51.4144 11.4656 52.7974 11.8427 53.8032 12.4085C54.8089 12.9742 55.5214 13.6552 55.9404 14.4515C56.3595 15.2268 56.5691 16.044 56.5691 16.9031C56.5691 18.1394 56.2548 19.2185 55.6261 20.1405C54.9975 21.0415 54.086 21.7434 52.8917 22.2463C51.7182 22.7492 50.3039 23.0007 48.6485 23.0007C48.1875 23.0007 47.4856 22.9902 46.5426 22.9692C45.6207 22.9273 44.4996 22.9064 43.1796 22.9064C42.3833 22.9064 41.5975 22.9168 40.8222 22.9378C40.0679 22.9378 39.4498 22.9587 38.9678 23.0007V22.372C39.6803 22.3301 40.2146 22.2463 40.5708 22.1206C40.927 21.9949 41.1575 21.7434 41.2623 21.3663C41.388 20.9891 41.4509 20.4233 41.4509 19.669V4.07933C41.4509 3.30404 41.388 2.73829 41.2623 2.38207C41.1575 2.00491 40.9165 1.75346 40.5394 1.62774C40.1832 1.48106 39.6593 1.39724 38.9678 1.37629V0.747676ZM47.2656 1.37629C46.3645 1.37629 45.7674 1.5544 45.474 1.91061C45.2016 2.26683 45.0654 2.98974 45.0654 4.07933V19.669C45.0654 20.4024 45.1283 20.9577 45.254 21.3348C45.3797 21.712 45.5997 21.9634 45.914 22.0892C46.2493 22.2149 46.7312 22.2777 47.3598 22.2777C49.2457 22.2777 50.6077 21.8063 51.4458 20.8634C52.305 19.8995 52.7345 18.5375 52.7345 16.7774C52.7345 15.1639 52.305 13.9172 51.4458 13.0371C50.6077 12.157 49.2143 11.717 47.2656 11.717H44.2168C44.2168 11.717 44.2168 11.6332 44.2168 11.4656C44.2168 11.277 44.2168 11.1827 44.2168 11.1827H46.9198C48.0723 11.1827 48.9628 10.9522 49.5914 10.4912C50.22 10.0093 50.6496 9.38066 50.8801 8.60537C51.1106 7.80912 51.2258 6.96049 51.2258 6.05947C51.2258 4.50889 50.922 3.34595 50.3143 2.57066C49.7067 1.77441 48.6904 1.37629 47.2656 1.37629ZM74.9187 0.747676C74.8349 1.54392 74.7721 2.31921 74.7301 3.07355C74.7092 3.80694 74.6987 4.37269 74.6987 4.77081C74.6987 5.16893 74.7092 5.5461 74.7301 5.90232C74.7511 6.25854 74.7721 6.55189 74.793 6.78238H74.0701C73.9234 5.44134 73.6929 4.38317 73.3786 3.60787C73.0853 2.83258 72.6348 2.28778 72.0271 1.97347C71.4404 1.63821 70.6127 1.47058 69.5441 1.47058H67.3753C66.7048 1.47058 66.1915 1.53344 65.8352 1.65917C65.5 1.76394 65.2695 1.99443 65.1438 2.35064C65.018 2.68591 64.9552 3.22023 64.9552 3.95361V19.7947C64.9552 20.5071 65.018 21.0415 65.1438 21.3977C65.2695 21.7539 65.5 21.9949 65.8352 22.1206C66.1915 22.2254 66.7048 22.2777 67.3753 22.2777H69.4184C70.6127 22.2777 71.5556 22.0892 72.2471 21.712C72.9595 21.3348 73.4939 20.7167 73.8501 19.8576C74.2273 18.9985 74.5101 17.8251 74.6987 16.3373H75.4216C75.3588 16.945 75.3273 17.7412 75.3273 18.7261C75.3273 19.1451 75.3378 19.7528 75.3588 20.5491C75.4007 21.3453 75.4635 22.1625 75.5473 23.0007C74.4787 22.9587 73.2739 22.9378 71.9328 22.9378C70.5918 22.9168 69.3974 22.9064 68.3497 22.9064C67.8678 22.9064 67.2496 22.9064 66.4953 22.9064C65.741 22.9064 64.9238 22.9168 64.0437 22.9378C63.1846 22.9378 62.3045 22.9483 61.4035 22.9692C60.5234 22.9692 59.6748 22.9797 58.8576 23.0007V22.372C59.57 22.3301 60.1044 22.2463 60.4606 22.1206C60.8168 21.9949 61.0473 21.7434 61.1521 21.3663C61.2778 20.9891 61.3406 20.4233 61.3406 19.669V4.07933C61.3406 3.30404 61.2778 2.73829 61.1521 2.38207C61.0473 2.00491 60.8063 1.75346 60.4292 1.62774C60.0729 1.48106 59.5491 1.39724 58.8576 1.37629V0.747676C59.6748 0.768629 60.5234 0.789583 61.4035 0.810536C62.3045 0.810536 63.1846 0.821013 64.0437 0.841967C64.9238 0.841967 65.741 0.841967 66.4953 0.841967C67.2496 0.841967 67.8678 0.841967 68.3497 0.841967C69.3136 0.841967 70.4032 0.841967 71.6185 0.841967C72.8548 0.821013 73.9549 0.789583 74.9187 0.747676ZM69.7012 11.497C69.7012 11.497 69.7012 11.6018 69.7012 11.8113C69.7012 12.0208 69.7012 12.1256 69.7012 12.1256H64.0123C64.0123 12.1256 64.0123 12.0208 64.0123 11.8113C64.0123 11.6018 64.0123 11.497 64.0123 11.497H69.7012ZM70.6127 7.34814C70.5289 8.5425 70.487 9.454 70.487 10.0826C70.5079 10.7112 70.5184 11.2875 70.5184 11.8113C70.5184 12.3351 70.5289 12.9114 70.5499 13.54C70.5708 14.1686 70.6232 15.0801 70.707 16.2745H69.9841C69.8793 15.583 69.7431 14.9229 69.5755 14.2943C69.4079 13.6448 69.104 13.1209 68.664 12.7228C68.2449 12.3247 67.5849 12.1256 66.6839 12.1256V11.497C67.3544 11.497 67.8782 11.3608 68.2554 11.0884C68.6535 10.816 68.9574 10.4598 69.1669 10.0198C69.3764 9.57972 69.5231 9.12921 69.6069 8.66823C69.7117 8.18629 69.806 7.74626 69.8898 7.34814H70.6127ZM86.8997 0.747676V1.37629C86.1873 1.39724 85.6425 1.48106 85.2653 1.62774C84.9091 1.75346 84.6682 2.00491 84.5424 2.38207C84.4167 2.73829 84.3539 3.30404 84.3539 4.07933V19.7947C84.3539 20.5071 84.4062 21.0415 84.511 21.3977C84.6367 21.7539 84.8672 21.9949 85.2025 22.1206C85.5587 22.2254 86.0616 22.2777 86.7112 22.2777H88.7542C89.6552 22.2777 90.4095 22.152 91.0172 21.9006C91.6458 21.6491 92.1696 21.272 92.5887 20.7691C93.0078 20.2662 93.3326 19.6166 93.5631 18.8204C93.7936 18.0241 93.9717 17.0917 94.0974 16.023H94.8203C94.7574 16.6935 94.726 17.5736 94.726 18.6632C94.726 19.0823 94.7365 19.7004 94.7574 20.5176C94.7993 21.3139 94.8622 22.1415 94.946 23.0007C93.8774 22.9587 92.6725 22.9378 91.3315 22.9378C89.9904 22.9168 88.7961 22.9064 87.7484 22.9064C87.2664 22.9064 86.6483 22.9064 85.894 22.9064C85.1396 22.9064 84.3224 22.9168 83.4424 22.9378C82.5833 22.9378 81.7032 22.9483 80.8022 22.9692C79.9221 22.9692 79.0735 22.9797 78.2563 23.0007V22.372C78.9687 22.3301 79.503 22.2463 79.8593 22.1206C80.2155 21.9949 80.446 21.7434 80.5507 21.3663C80.6765 20.9891 80.7393 20.4233 80.7393 19.669V4.07933C80.7393 3.30404 80.6765 2.73829 80.5507 2.38207C80.446 2.00491 80.205 1.75346 79.8278 1.62774C79.4716 1.48106 78.9478 1.39724 78.2563 1.37629V0.747676C78.7382 0.768629 79.3564 0.789583 80.1107 0.810536C80.886 0.83149 81.7137 0.841967 82.5937 0.841967C83.39 0.841967 84.1757 0.83149 84.951 0.810536C85.7473 0.789583 86.3969 0.768629 86.8997 0.747676Z" fill="white"/>
<path d="M26.6791 25.378L19.01 5.63947C18.7167 4.86417 18.3814 4.34033 18.0043 4.06793C17.6061 3.79553 17.2394 3.64885 16.9042 3.6279V2.99928C17.4071 3.04119 18.0043 3.06214 18.6957 3.06214C19.3663 3.0831 20.0473 3.09358 20.7387 3.09358C21.6188 3.09358 22.436 3.0831 23.1903 3.06214C23.9447 3.06214 24.5523 3.04119 25.0133 2.99928V3.6279C23.9447 3.66981 23.2741 3.84791 23.0017 4.16222C22.7084 4.49748 22.7712 5.19944 23.1903 6.26808L28.8479 21.5434L28.345 22.1092L33.5625 8.46824C33.9396 7.52531 34.1701 6.73954 34.254 6.11093C34.3168 5.48231 34.2644 4.9899 34.0968 4.63368C33.9082 4.27747 33.5939 4.02602 33.1539 3.87934C32.7138 3.73267 32.169 3.64885 31.5195 3.6279V2.99928C32.1481 3.04119 32.7872 3.06214 33.4368 3.06214C34.0654 3.0831 34.6626 3.09358 35.2283 3.09358C35.7312 3.09358 36.1817 3.0831 36.5798 3.06214C36.957 3.06214 37.3027 3.04119 37.617 2.99928V3.6279C37.177 3.73267 36.737 3.99459 36.297 4.41367C35.8569 4.83274 35.4378 5.54517 35.0397 6.55096L27.7478 25.378C27.5802 25.378 27.402 25.378 27.2135 25.378C27.0249 25.378 26.8468 25.378 26.6791 25.378ZM23.3789 12.0513V11.4227H32.7453L32.431 12.0513H23.3789Z" fill="white"/>
</svg>
