<svg width="24" height="24" viewBox="0 0 24 24" fill="none" xmlns="http://www.w3.org/2000/svg">
<path d="M19 21H11C10.7167 21 10.479 20.904 10.287 20.712C10.095 20.52 9.99933 20.2827 10 20C10 19.7167 10.096 19.479 10.288 19.287C10.48 19.095 10.7173 18.9993 11 19H19V5H5V8C5 8.28334 4.904 8.521 4.712 8.713C4.52 8.905 4.28267 9.00067 4 9C3.71667 9 3.479 8.904 3.287 8.712C3.095 8.52 2.99933 8.28267 3 8V5C3 4.45 3.196 3.979 3.588 3.587C3.98 3.195 4.45067 2.99934 5 3H19C19.55 3 20.021 3.196 20.413 3.588C20.805 3.98 21.0007 4.45067 21 5V19C21 19.55 20.804 20.021 20.412 20.413C20.02 20.805 19.5493 21.0007 19 21ZM16 13C16.2833 13 16.521 12.904 16.713 12.712C16.905 12.52 17.0007 12.2827 17 12C17 11.7167 16.904 11.479 16.712 11.287C16.52 11.095 16.2827 10.9993 16 11H11C10.7167 11 10.479 11.096 10.287 11.288C10.095 11.48 9.99933 11.7173 10 12C10 12.2833 10.096 12.521 10.288 12.713C10.48 12.905 10.7173 13.0007 11 13H16ZM13 17C13.2833 17 13.521 16.904 13.713 16.712C13.905 16.52 14.0007 16.2827 14 16C14 15.7167 13.904 15.479 13.712 15.287C13.52 15.095 13.2827 14.9993 13 15H11C10.7167 15 10.479 15.096 10.287 15.288C10.095 15.48 9.99933 15.7173 10 16C10 16.2833 10.096 16.521 10.288 16.713C10.48 16.905 10.7173 17.0007 11 17H13ZM16 9C16.2833 9 16.521 8.904 16.713 8.712C16.905 8.52 17.0007 8.28267 17 8C17 7.71667 16.904 7.479 16.712 7.287C16.52 7.095 16.2827 6.99934 16 7H8C7.71667 7 7.479 7.096 7.287 7.288C7.095 7.48 6.99933 7.71734 7 8C7 8.28334 7.096 8.521 7.288 8.713C7.48 8.905 7.71733 9.00067 8 9H16ZM6.625 22C5.30833 22 4.18733 21.5373 3.262 20.612C2.33667 19.6867 1.87433 18.566 1.875 17.25C1.875 16.3 2.121 15.45 2.613 14.7C3.105 13.95 3.75067 13.3833 4.55 13H3C2.71667 13 2.479 12.904 2.287 12.712C2.095 12.52 1.99933 12.2827 2 12C2 11.7167 2.096 11.479 2.288 11.287C2.48 11.095 2.71733 10.9993 3 11H7C7.28333 11 7.521 11.096 7.713 11.288C7.905 11.48 8.00067 11.7173 8 12V16C8 16.2833 7.904 16.521 7.712 16.713C7.52 16.905 7.28267 17.0007 7 17C6.71667 17 6.479 16.904 6.287 16.712C6.095 16.52 5.99933 16.2827 6 16V14.575C5.38333 14.7083 4.875 15.025 4.475 15.525C4.075 16.025 3.875 16.6 3.875 17.25C3.875 18.0167 4.14567 18.6667 4.687 19.2C5.22833 19.7333 5.87433 20 6.625 20C6.90833 20 7.146 20.096 7.338 20.288C7.53 20.48 7.62567 20.7173 7.625 21C7.625 21.2833 7.529 21.521 7.337 21.713C7.145 21.905 6.907 22.0007 6.625 22Z" fill="#C2C2C2"/>
</svg>
