<svg width="25" height="18" viewBox="0 0 25 18" fill="none" xmlns="http://www.w3.org/2000/svg">
<path d="M22.6828 16.4999L22.685 16.4999C23.6372 16.5081 24.4185 15.7273 24.4304 14.7542L24.4304 2.7563C24.4266 2.28569 24.2398 1.83617 23.9117 1.5068C23.5843 1.17827 23.1431 0.996149 22.6828 1.00007L2.74545 1.00006C2.28727 0.996149 1.84606 1.17827 1.51874 1.5068C1.19058 1.83617 1.00383 2.28569 1.00001 2.75426L1 14.7437C1.00383 15.2143 1.19058 15.6638 1.51874 15.9932C1.84606 16.3217 2.28727 16.5038 2.74758 16.4999H22.6828ZM22.6818 16.9999C22.6814 16.9999 22.6811 16.9999 22.6807 16.9999L22.6828 16.9999H22.6818Z" fill="white" stroke="black" stroke-opacity="0.2" stroke-width="0.5"/>
<path d="M13.3258 16.7499H22.6828C23.2081 16.7543 23.7135 16.5493 24.088 16.1799C24.4625 15.8105 24.6753 15.307 24.6797 14.7803V12.4216C21.1463 14.4559 17.3143 15.9168 13.3258 16.7499Z" fill="#F27712"/>
<path d="M23.8545 10.0464H23.0046L22.0475 8.78023H21.9567V10.0464H21.2636V6.90161H22.2868C23.0871 6.90161 23.5492 7.23264 23.5492 7.8285C23.5492 8.31678 23.2604 8.63126 22.7406 8.73057L23.8545 10.0464ZM22.8313 7.85333C22.8313 7.54712 22.6003 7.38988 22.1712 7.38988H21.9567V8.34161H22.1547C22.6003 8.34161 22.8313 8.17609 22.8313 7.85333ZM18.8377 6.90161H20.8015V7.43126H19.5308V8.13471H20.752V8.67264H19.5308V9.52505H20.8015V10.0547H18.8377V6.90161ZM16.6098 10.1292L15.1081 6.89333H15.8672L16.8161 9.01195L17.7733 6.89333H18.5159L16.9976 10.1292H16.6263H16.6098ZM10.3305 10.1209C9.27437 10.1209 8.44924 9.40092 8.44924 8.46574C8.44924 7.5554 9.29088 6.81885 10.3471 6.81885C10.6441 6.81885 10.8916 6.87678 11.1969 7.00919V7.73747C10.9657 7.50965 10.6547 7.38187 10.3305 7.38161C9.67044 7.38161 9.16711 7.86161 9.16711 8.46574C9.16711 9.10299 9.66219 9.55816 10.3636 9.55816C10.6771 9.55816 10.9164 9.45885 11.1969 9.21057V9.93885C10.8834 10.0713 10.6193 10.1209 10.3305 10.1209ZM8.23471 9.08643C8.23471 9.69885 7.73137 10.1209 7.00525 10.1209C6.47717 10.1209 6.09761 9.93885 5.7758 9.52505L6.22963 9.13609C6.3864 9.41747 6.65045 9.55816 6.9805 9.55816C7.29405 9.55816 7.51684 9.36781 7.51684 9.11954C7.51684 8.97885 7.45083 8.87126 7.31055 8.7885C7.15675 8.71365 6.99659 8.65271 6.83198 8.60643C6.18012 8.39954 5.95733 8.17609 5.95733 7.73747C5.95733 7.22436 6.43591 6.8354 7.06301 6.8354C7.45908 6.8354 7.81389 6.95954 8.11093 7.19126L7.74788 7.60505C7.60398 7.44683 7.4003 7.35671 7.18678 7.35678C6.88974 7.35678 6.6752 7.50574 6.6752 7.70436C6.6752 7.86988 6.79897 7.96092 7.21154 8.10161C8.00367 8.34988 8.23471 8.58161 8.23471 9.09471V9.08643ZM4.8269 6.90161H5.52001V10.0547H4.8269V6.90161ZM2.59903 10.0547H1.57587V6.90161H2.59903C3.72122 6.90161 4.49684 7.54712 4.49684 8.47402C4.49684 8.94574 4.26581 9.39264 3.86149 9.69057C3.51493 9.93885 3.12712 10.0547 2.59078 10.0547H2.59903ZM3.40767 7.68781C3.17663 7.50574 2.91259 7.43954 2.45876 7.43954H2.26898V9.52505H2.45876C2.90433 9.52505 3.18488 9.4423 3.40767 9.27678C3.64696 9.07816 3.78723 8.78023 3.78723 8.47402C3.78723 8.16781 3.64696 7.87816 3.40767 7.68781Z" fill="black"/>
<path d="M13.1277 6.81885C12.2201 6.81885 11.4775 7.54712 11.4775 8.44919C11.4775 9.40919 12.1871 10.1292 13.1277 10.1292C14.0519 10.1292 14.778 9.40092 14.778 8.47402C14.778 7.54712 14.0602 6.81885 13.1277 6.81885Z" fill="#F27712"/>
</svg>
