<svg width="24" height="24" viewBox="0 0 24 24" fill="none" xmlns="http://www.w3.org/2000/svg">
<path d="M19.9996 12.0501C19.9809 10.5256 19.5269 9.03815 18.6911 7.76301C17.8553 6.48787 16.6726 5.4781 15.2822 4.85263C13.8917 4.22716 12.3515 4.01204 10.8429 4.23259C9.33437 4.45315 7.92021 5.10019 6.76704 6.09754C5.61386 7.09488 4.76969 8.40098 4.33394 9.86201C3.8982 11.3231 3.88902 12.8782 4.3075 14.3443C4.72598 15.8104 5.55468 17.1263 6.69601 18.1372C7.83733 19.1481 9.24376 19.8118 10.7496 20.0501V14.3801H8.74964V12.0501H10.7496V10.2801C10.7033 9.86852 10.7479 9.45181 10.8803 9.05937C11.0127 8.66693 11.2296 8.30833 11.5157 8.00888C11.8018 7.70942 12.1501 7.47641 12.5361 7.3263C12.9221 7.17618 13.3364 7.11261 13.7496 7.14009C14.3494 7.1483 14.9478 7.20179 15.5396 7.30009V9.30009H14.5396C14.3672 9.27834 14.192 9.29562 14.0272 9.35065C13.8623 9.40568 13.7119 9.49705 13.5871 9.61801C13.4623 9.73897 13.3663 9.88643 13.3062 10.0495C13.246 10.2126 13.2233 10.3871 13.2396 10.5601V12.0701H15.4596L15.0996 14.4001H13.2496V20.0001C15.1395 19.7012 16.8597 18.7348 18.0981 17.2762C19.3365 15.8176 20.0111 13.9635 19.9996 12.0501Z" fill="#8E8E8E"/>
</svg>
