<svg width="24" height="24" viewBox="0 0 24 24" fill="none" xmlns="http://www.w3.org/2000/svg">
<path d="M19.9997 12.0501C19.981 10.5256 19.527 9.03815 18.6912 7.76301C17.8554 6.48787 16.6727 5.4781 15.2823 4.85263C13.8918 4.22716 12.3516 4.01204 10.843 4.23259C9.3344 4.45315 7.92024 5.10019 6.76707 6.09754C5.61389 7.09488 4.76972 8.40098 4.33397 9.86201C3.89823 11.3231 3.88905 12.8782 4.30753 14.3443C4.72601 15.8104 5.55471 17.1263 6.69604 18.1372C7.83736 19.1481 9.24379 19.8118 10.7497 20.0501V14.3801H8.74968V12.0501H10.7497V10.2801C10.7034 9.86852 10.748 9.45181 10.8804 9.05937C11.0128 8.66693 11.2297 8.30833 11.5158 8.00888C11.8019 7.70942 12.1502 7.47641 12.5362 7.3263C12.9222 7.17618 13.3365 7.11261 13.7497 7.14009C14.3495 7.1483 14.9479 7.20179 15.5397 7.30009V9.30009H14.5397C14.3673 9.27834 14.1921 9.29562 14.0273 9.35065C13.8624 9.40568 13.712 9.49705 13.5872 9.61801C13.4624 9.73897 13.3664 9.88643 13.3063 10.0495C13.2461 10.2126 13.2234 10.3871 13.2397 10.5601V12.0701H15.4597L15.0997 14.4001H13.2497V20.0001C15.1396 19.7012 16.8598 18.7348 18.0982 17.2762C19.3366 15.8176 20.0112 13.9635 19.9997 12.0501Z" fill="#8E8E8E"/>
</svg>
