<svg width="21" height="20" viewBox="0 0 21 20" fill="none" xmlns="http://www.w3.org/2000/svg">
<g clip-path="url(#clip0_697_5041)">
<path d="M0.5 14.9996C0.5 15.5889 0.734126 16.1542 1.15087 16.5709C1.56762 16.9877 2.13285 17.2218 2.72222 17.2218H18.2778C18.8671 17.2218 19.4324 16.9877 19.8491 16.5709C20.2659 16.1542 20.5 15.5889 20.5 14.9996V12.7773H0.5V14.9996Z" fill="#FFCD05"/>
<path d="M0.5 7.77734H20.5V12.7773H0.5V7.77734Z" fill="#ED1F24"/>
<path d="M18.2778 2.77734H2.72222C2.13285 2.77734 1.56762 3.01147 1.15087 3.42822C0.734126 3.84496 0.5 4.4102 0.5 4.99957L0.5 7.77734H20.5V4.99957C20.5 4.4102 20.2659 3.84496 19.8491 3.42822C19.4324 3.01147 18.8671 2.77734 18.2778 2.77734Z" fill="#141414"/>
</g>
<defs>
<clipPath id="clip0_697_5041">
<rect width="20" height="20" fill="white" transform="translate(0.5)"/>
</clipPath>
</defs>
</svg>
