<svg width="20" height="20" viewBox="0 0 20 20" fill="none" xmlns="http://www.w3.org/2000/svg">
<path d="M16.9536 12.0207C17.346 11.6321 17.3491 10.9989 16.9604 10.6065C16.5718 10.2141 15.9387 10.211 15.5463 10.5997L16.9536 12.0207ZM9.99994 17.5002L9.29625 18.2107C9.68598 18.5967 10.3139 18.5967 10.7036 18.2107L9.99994 17.5002ZM4.45363 10.5997C4.06122 10.211 3.42807 10.2141 3.03943 10.6065C2.65079 10.9989 2.65385 11.6321 3.04625 12.0207L4.45363 10.5997ZM3.05256 12.0269C3.44837 12.412 4.08148 12.4034 4.46664 12.0076C4.85181 11.6118 4.84317 10.9787 4.44736 10.5935L3.05256 12.0269ZM9.99996 5.83851L9.19736 6.43503C9.38545 6.6881 9.68187 6.83763 9.99718 6.83851C10.3125 6.83939 10.6097 6.69151 10.7992 6.43949L9.99996 5.83851ZM15.5492 10.6018C15.1552 10.9888 15.1495 11.6219 15.5365 12.0159C15.9235 12.4099 16.5567 12.4156 16.9507 12.0286L15.5492 10.6018ZM15.5463 10.5997L9.29625 16.7897L10.7036 18.2107L16.9536 12.0207L15.5463 10.5997ZM10.7036 16.7897L4.45363 10.5997L3.04625 12.0207L9.29625 18.2107L10.7036 16.7897ZM4.44736 10.5935C3.59318 9.7623 3.27806 8.52189 3.63193 7.38379L1.72212 6.78996C1.14475 8.64687 1.6589 10.6707 3.05256 12.0269L4.44736 10.5935ZM3.63193 7.38379C3.98581 6.24568 4.94874 5.40267 6.12365 5.20238L5.78755 3.23082C3.8706 3.55761 2.2995 4.93305 1.72212 6.78996L3.63193 7.38379ZM6.12365 5.20238C7.29855 5.00209 8.4864 5.47845 9.19736 6.43503L10.8026 5.242C9.64257 3.68126 7.70449 2.90403 5.78755 3.23082L6.12365 5.20238ZM10.7992 6.43949C11.5132 5.48999 12.6985 5.01995 13.8691 5.22211L14.2095 3.25128C12.2995 2.92144 10.3655 3.68835 9.2007 5.23754L10.7992 6.43949ZM13.8691 5.22211C15.0398 5.42427 15.9988 6.26463 16.3529 7.39858L18.262 6.80236C17.6842 4.95223 16.1195 3.58112 14.2095 3.25128L13.8691 5.22211ZM16.3529 7.39858C16.7071 8.53253 16.3968 9.76931 15.5492 10.6018L16.9507 12.0286C18.3335 10.6704 18.8398 8.6525 18.262 6.80236L16.3529 7.39858Z" fill="#8E8E8E"/>
</svg>
