<svg width="20" height="20" viewBox="0 0 20 20" fill="none" xmlns="http://www.w3.org/2000/svg">
<rect width="20" height="20" fill="white"/>
<path fill-rule="evenodd" clip-rule="evenodd" d="M16.25 11.3102L10 17.5002L3.75 11.3102M3.75002 11.3102C2.6261 10.2165 2.21146 8.58438 2.67709 7.08688C3.14272 5.58937 4.40973 4.48014 5.95566 4.2166C7.50158 3.95306 9.06455 4.57986 10 5.83851C10.9394 4.58917 12.499 3.97069 14.0394 4.2367C15.5797 4.5027 16.8415 5.60843 17.3075 7.10047C17.7735 8.59252 17.3652 10.2199 16.25 11.3152" fill="#FF7C65"/>
<path d="M16.9537 12.0207C17.3461 11.6321 17.3491 10.9989 16.9605 10.6065C16.5719 10.2141 15.9387 10.211 15.5463 10.5997L16.9537 12.0207ZM10 17.5002L9.29631 18.2107C9.68604 18.5967 10.314 18.5967 10.7037 18.2107L10 17.5002ZM4.45369 10.5997C4.06128 10.211 3.42813 10.2141 3.03949 10.6065C2.65085 10.9989 2.65391 11.6321 3.04631 12.0207L4.45369 10.5997ZM3.05262 12.0269C3.44843 12.412 4.08154 12.4034 4.4667 12.0076C4.85187 11.6118 4.84324 10.9787 4.44742 10.5935L3.05262 12.0269ZM10 5.83851L9.19742 6.43503C9.38551 6.6881 9.68193 6.83763 9.99724 6.83851C10.3125 6.83939 10.6098 6.69151 10.7993 6.43949L10 5.83851ZM15.5493 10.6018C15.1553 10.9888 15.1496 11.6219 15.5366 12.0159C15.9236 12.4099 16.5567 12.4156 16.9508 12.0286L15.5493 10.6018ZM15.5463 10.5997L9.29631 16.7897L10.7037 18.2107L16.9537 12.0207L15.5463 10.5997ZM10.7037 16.7897L4.45369 10.5997L3.04631 12.0207L9.29631 18.2107L10.7037 16.7897ZM4.44742 10.5935C3.59325 9.7623 3.27812 8.52189 3.63199 7.38379L1.72218 6.78996C1.14481 8.64687 1.65896 10.6707 3.05262 12.0269L4.44742 10.5935ZM3.63199 7.38379C3.98587 6.24568 4.9488 5.40267 6.12371 5.20238L5.78761 3.23082C3.87066 3.55761 2.29956 4.93305 1.72218 6.78996L3.63199 7.38379ZM6.12371 5.20238C7.29861 5.00209 8.48646 5.47845 9.19742 6.43503L10.8026 5.242C9.64263 3.68126 7.70455 2.90403 5.78761 3.23082L6.12371 5.20238ZM10.7993 6.43949C11.5132 5.48999 12.6985 5.01995 13.8692 5.22211L14.2095 3.25128C12.2995 2.92144 10.3656 3.68835 9.20076 5.23754L10.7993 6.43949ZM13.8692 5.22211C15.0398 5.42427 15.9988 6.26463 16.353 7.39858L18.262 6.80236C17.6842 4.95223 16.1195 3.58112 14.2095 3.25128L13.8692 5.22211ZM16.353 7.39858C16.7071 8.53253 16.3968 9.76931 15.5493 10.6018L16.9508 12.0286C18.3336 10.6704 18.8399 8.6525 18.262 6.80236L16.353 7.39858Z" fill="#FF7C65"/>
</svg>
