<svg width="20" height="20" viewBox="0 0 20 20" fill="none" xmlns="http://www.w3.org/2000/svg">
<path d="M16.7778 11.8431C17.0721 11.5516 17.0744 11.0767 16.7829 10.7824C16.4914 10.4881 16.0165 10.4858 15.7222 10.7773L16.7778 11.8431ZM10 17.5002L9.47223 18.0331C9.76453 18.3226 10.2355 18.3226 10.5278 18.0331L10 17.5002ZM4.27777 10.7773C3.98346 10.4858 3.5086 10.4881 3.21712 10.7824C2.92564 11.0767 2.92793 11.5516 3.22223 11.8431L4.27777 10.7773ZM3.22697 11.8477C3.52383 12.1366 3.99866 12.1301 4.28753 11.8332C4.57641 11.5364 4.56993 11.0615 4.27307 10.7727L3.22697 11.8477ZM10 5.83851L9.39807 6.2859C9.53914 6.4757 9.76146 6.58785 9.99794 6.58851C10.2344 6.58917 10.4574 6.47826 10.5995 6.28925L10 5.83851ZM15.7245 10.7801C15.429 11.0704 15.4247 11.5452 15.715 11.8407C16.0052 12.1362 16.4801 12.1405 16.7756 11.8502L15.7245 10.7801ZM15.7222 10.7773L9.47223 16.9673L10.5278 18.0331L16.7778 11.8431L15.7222 10.7773ZM10.5278 16.9673L4.27777 10.7773L3.22223 11.8431L9.47223 18.0331L10.5278 16.9673ZM4.27307 10.7727C3.35146 9.87585 3.01146 8.53751 3.39327 7.30956L1.96091 6.86419C1.41147 8.63125 1.90075 10.5571 3.22697 11.8477L4.27307 10.7727ZM3.39327 7.30956C3.77508 6.0816 4.81404 5.17203 6.08169 4.95593L5.82962 3.47726C4.00543 3.78824 2.51035 5.09713 1.96091 6.86419L3.39327 7.30956ZM6.08169 4.95593C7.34935 4.73983 8.63098 5.2538 9.39807 6.2859L10.602 5.39113C9.49811 3.90591 7.65381 3.16629 5.82962 3.47726L6.08169 4.95593ZM10.5995 6.28925C11.3698 5.26478 12.6487 4.75763 13.9117 4.97576L14.167 3.49763C12.3494 3.18375 10.5091 3.91355 9.40057 5.38778L10.5995 6.28925ZM13.9117 4.97576C15.1748 5.19388 16.2095 6.10058 16.5916 7.32405L18.0234 6.87689C17.4736 5.11628 15.9846 3.81152 14.167 3.49763L13.9117 4.97576ZM16.5916 7.32405C16.9737 8.54753 16.6389 9.88195 15.7245 10.7801L16.7756 11.8502C18.0915 10.5578 18.5733 8.6375 18.0234 6.87689L16.5916 7.32405Z" fill="black"/>
</svg>
