<svg width="24" height="24" viewBox="0 0 24 24" fill="none" xmlns="http://www.w3.org/2000/svg">
<path d="M10 13.9999C10.6583 14.6718 11.5594 15.0504 12.5 15.0504C13.4406 15.0504 14.3417 14.6718 15 13.9999L19 9.99989C20.3807 8.61918 20.3807 6.3806 19 4.99989C17.6193 3.61918 15.3807 3.61918 14 4.99989L13.5 5.49989" stroke="#8E8E8E" stroke-width="2" stroke-linecap="round" stroke-linejoin="round"/>
<path d="M13.9999 10.0002C13.3416 9.32833 12.4405 8.94971 11.4999 8.94971C10.5592 8.94971 9.6582 9.32833 8.99989 10.0002L4.99989 14.0002C3.61918 15.3809 3.61918 17.6195 4.99989 19.0002C6.3806 20.3809 8.61918 20.3809 9.99989 19.0002L10.4999 18.5002" stroke="#8E8E8E" stroke-width="2" stroke-linecap="round" stroke-linejoin="round"/>
</svg>
