<svg width="24" height="16" viewBox="0 0 24 16" fill="none" xmlns="http://www.w3.org/2000/svg">
<g clip-path="url(#clip0_1_616)">
<path d="M21.9348 0H1.99408C0.892778 0 0 0.89543 0 2V14C0 15.1046 0.892778 16 1.99408 16H21.9348C23.0361 16 23.9289 15.1046 23.9289 14V2C23.9289 0.89543 23.0361 0 21.9348 0Z" fill="#252525"/>
<path d="M8.97335 13C11.7266 13 13.9585 10.7614 13.9585 8C13.9585 5.23858 11.7266 3 8.97335 3C6.2201 3 3.98816 5.23858 3.98816 8C3.98816 10.7614 6.2201 13 8.97335 13Z" fill="#EB001B"/>
<path d="M14.9556 13C17.7088 13 19.9408 10.7614 19.9408 8C19.9408 5.23858 17.7088 3 14.9556 3C12.2023 3 9.9704 5.23858 9.9704 8C9.9704 10.7614 12.2023 13 14.9556 13Z" fill="#F79E1B"/>
<path fill-rule="evenodd" clip-rule="evenodd" d="M11.9645 3.99963C13.1753 4.91184 13.9585 6.36418 13.9585 8C13.9585 9.63582 13.1753 11.0882 11.9645 12.0004C10.7536 11.0882 9.9704 9.63582 9.9704 8C9.9704 6.36418 10.7536 4.91184 11.9645 3.99963V3.99963Z" fill="#FF5F00"/>
</g>
<defs>
<clipPath id="clip0_1_616">
<rect width="23.9289" height="16" fill="white"/>
</clipPath>
</defs>
</svg>
