<svg width="24" height="24" viewBox="0 0 24 24" fill="none" xmlns="http://www.w3.org/2000/svg">
<path d="M19.8304 8.00013C19.8304 8.17013 19.8304 8.35014 19.8304 8.52014C19.8397 10.0303 19.5491 11.5273 18.9755 12.9243C18.4018 14.3213 17.5566 15.5905 16.4887 16.6584C15.4208 17.7263 14.1516 18.5715 12.7546 19.1452C11.3576 19.7188 9.86057 20.0094 8.35039 20.0001C6.15253 20.0065 3.9996 19.378 2.15039 18.1901C2.48039 18.1901 2.79039 18.1901 3.15039 18.1901C4.96385 18.1901 6.72473 17.5809 8.15039 16.4601C7.30533 16.4525 6.48437 16.1775 5.80529 15.6745C5.12621 15.1715 4.62389 14.4663 4.37039 13.6601C4.62504 13.7007 4.88253 13.7208 5.14039 13.7201C5.49754 13.7175 5.85321 13.6739 6.20039 13.5901C5.2969 13.4057 4.48488 12.9148 3.90175 12.2004C3.31862 11.4861 3.00021 10.5922 3.00039 9.67014C3.55948 9.97854 4.18246 10.1531 4.82039 10.1801C4.25751 9.8078 3.79633 9.30102 3.47855 8.70563C3.16078 8.11024 2.99644 7.44502 3.00039 6.77014C3.00164 6.06762 3.18789 5.37782 3.54039 4.77014C4.55212 6.01779 5.81463 7.03902 7.24615 7.7677C8.67767 8.49638 10.2463 8.91625 11.8504 9.00013C11.7869 8.69749 11.7534 8.38935 11.7504 8.08014C11.7243 7.25702 11.953 6.44591 12.4051 5.75759C12.8573 5.06926 13.5108 4.53727 14.2766 4.23424C15.0423 3.93122 15.883 3.87194 16.6837 4.0645C17.4844 4.25706 18.2061 4.69208 18.7504 5.31014C19.6554 5.12835 20.5218 4.78994 21.3104 4.31014C21.0092 5.2433 20.3758 6.03333 19.5304 6.53014C20.3341 6.44329 21.1198 6.23421 21.8604 5.91014C21.312 6.7111 20.6365 7.41706 19.8604 8.00013H19.8304Z" fill="#8E8E8E"/>
</svg>
