<svg width="60" height="60" viewBox="0 0 60 60" fill="none" xmlns="http://www.w3.org/2000/svg">
<g clip-path="url(#clip0_6_583)">
<path d="M40.3672 52.8726H19.6328C19.0959 52.8726 18.6609 53.3077 18.6609 53.8445C18.6609 54.3812 19.0959 54.8164 19.6328 54.8164H40.3672C40.904 54.8164 41.3391 54.3812 41.3391 53.8445C41.3391 53.3077 40.904 52.8726 40.3672 52.8726Z" fill="#8E8E8E"/>
<path d="M28.9633 48.7256C28.4264 48.7256 27.9913 49.1607 27.9913 49.6975C27.9913 50.2343 28.4264 50.6694 28.9633 50.6694H31.0367C31.5736 50.6694 32.0086 50.2343 32.0086 49.6975C32.0086 49.1607 31.5736 48.7256 31.0367 48.7256H28.9633Z" fill="#8E8E8E"/>
<path d="M35.1836 48.7256C34.6467 48.7256 34.2117 49.1607 34.2117 49.6975C34.2117 50.2343 34.6467 50.6694 35.1836 50.6694H37.257C37.7939 50.6694 38.2289 50.2343 38.2289 49.6975C38.2289 49.1607 37.7939 48.7256 37.257 48.7256H35.1836Z" fill="#8E8E8E"/>
<path d="M44.4492 49.6975C44.4492 49.1607 44.0142 48.7256 43.4773 48.7256H41.4039C40.867 48.7256 40.4319 49.1607 40.4319 49.6975C40.4319 50.2343 40.867 50.6694 41.4039 50.6694H43.4773C44.0142 50.6694 44.4492 50.2343 44.4492 49.6975Z" fill="#8E8E8E"/>
<path d="M49.6976 48.7256H47.6242C47.0873 48.7256 46.6523 49.1607 46.6523 49.6975C46.6523 50.2343 47.0873 50.6694 47.6242 50.6694H49.6976C50.2345 50.6694 50.6696 50.2343 50.6696 49.6975C50.6696 49.1607 50.2345 48.7256 49.6976 48.7256Z" fill="#8E8E8E"/>
<path d="M13.3477 49.6975C13.3477 49.1607 12.9127 48.7256 12.3758 48.7256H10.3024C9.76548 48.7256 9.33044 49.1607 9.33044 49.6975C9.33044 50.2343 9.76548 50.6694 10.3024 50.6694H12.3758C12.9127 50.6694 13.3477 50.2343 13.3477 49.6975Z" fill="#8E8E8E"/>
<path d="M19.568 49.6975C19.568 49.1607 19.133 48.7256 18.5961 48.7256H16.5227C15.9858 48.7256 15.5508 49.1607 15.5508 49.6975C15.5508 50.2343 15.9858 50.6694 16.5227 50.6694H18.5961C19.133 50.6694 19.568 50.2343 19.568 49.6975Z" fill="#8E8E8E"/>
<path d="M22.743 48.7256C22.2061 48.7256 21.7711 49.1607 21.7711 49.6975C21.7711 50.2343 22.2061 50.6694 22.743 50.6694H24.8164C25.3533 50.6694 25.7883 50.2343 25.7883 49.6975C25.7883 49.1607 25.3533 48.7256 24.8164 48.7256H22.743Z" fill="#8E8E8E"/>
<path d="M28.9633 42.376H31.0367C31.5736 42.376 32.0086 41.9408 32.0086 41.4041C32.0086 40.8673 31.5736 40.4321 31.0367 40.4321H28.9633C28.4264 40.4321 27.9913 40.8673 27.9913 41.4041C27.9913 41.9408 28.4264 42.376 28.9633 42.376Z" fill="#8E8E8E"/>
<path d="M35.1836 42.376H37.257C37.7939 42.376 38.2289 41.9408 38.2289 41.4041C38.2289 40.8673 37.7939 40.4321 37.257 40.4321H35.1836C34.6467 40.4321 34.2117 40.8673 34.2117 41.4041C34.2117 41.9408 34.6467 42.376 35.1836 42.376Z" fill="#8E8E8E"/>
<path d="M41.4039 42.376H43.4773C44.0142 42.376 44.4492 41.9408 44.4492 41.4041C44.4492 40.8673 44.0142 40.4321 43.4773 40.4321H41.4039C40.867 40.4321 40.4319 40.8673 40.4319 41.4041C40.4319 41.9408 40.867 42.376 41.4039 42.376Z" fill="#8E8E8E"/>
<path d="M47.9719 41.9438H50.0454C50.5822 41.9438 51.0173 41.5087 51.0173 40.9719C51.0173 40.4352 50.5822 40 50.0454 40H47.9719C47.435 40 47 40.4352 47 40.9719C47 41.5087 47.435 41.9438 47.9719 41.9438Z" fill="#8E8E8E"/>
<path d="M10.3024 42.376H12.3758C12.9127 42.376 13.3477 41.9408 13.3477 41.4041C13.3477 40.8673 12.9127 40.4321 12.3758 40.4321H10.3024C9.76548 40.4321 9.33044 40.8673 9.33044 41.4041C9.33044 41.9408 9.76548 42.376 10.3024 42.376Z" fill="#8E8E8E"/>
<path d="M16.5227 42.376H18.5961C19.133 42.376 19.568 41.9408 19.568 41.4041C19.568 40.8673 19.133 40.4321 18.5961 40.4321H16.5227C15.9858 40.4321 15.5508 40.8673 15.5508 41.4041C15.5508 41.9408 15.9858 42.376 16.5227 42.376Z" fill="#8E8E8E"/>
<path d="M22.743 42.376H24.8164C25.3533 42.376 25.7883 41.9408 25.7883 41.4041C25.7883 40.8673 25.3533 40.4321 24.8164 40.4321H22.743C22.2061 40.4321 21.7711 40.8673 21.7711 41.4041C21.7711 41.9408 22.2061 42.376 22.743 42.376Z" fill="#8E8E8E"/>
<path d="M31.1015 45.5505C31.1015 46.0873 31.5365 46.5225 32.0734 46.5225H34.1469C34.6837 46.5225 35.1188 46.0873 35.1188 45.5505C35.1188 45.0138 34.6837 44.5786 34.1469 44.5786H32.0734C31.5365 44.5786 31.1015 45.0138 31.1015 45.5505Z" fill="#8E8E8E"/>
<path d="M37.3218 45.5505C37.3218 46.0873 37.7569 46.5225 38.2938 46.5225H40.3672C40.9041 46.5225 41.3391 46.0873 41.3391 45.5505C41.3391 45.0138 40.9041 44.5786 40.3672 44.5786H38.2938C37.7569 44.5786 37.3218 45.0138 37.3218 45.5505Z" fill="#8E8E8E"/>
<path d="M43.5421 45.5505C43.5421 46.0873 43.9771 46.5225 44.514 46.5225H46.5875C47.1244 46.5225 47.5594 46.0873 47.5594 45.5505C47.5594 45.0138 47.1244 44.5786 46.5875 44.5786H44.514C43.9771 44.5786 43.5421 45.0138 43.5421 45.5505Z" fill="#8E8E8E"/>
<path d="M12.4406 45.5505C12.4406 46.0873 12.8756 46.5225 13.4125 46.5225H15.486C16.0229 46.5225 16.4579 46.0873 16.4579 45.5505C16.4579 45.0138 16.0229 44.5786 15.486 44.5786H13.4125C12.8756 44.5786 12.4406 45.0138 12.4406 45.5505Z" fill="#8E8E8E"/>
<path d="M10.2376 45.5505C10.2376 45.0138 9.80255 44.5786 9.26566 44.5786H7.19223C6.65534 44.5786 6.22031 45.0138 6.22031 45.5505C6.22031 46.0873 6.65534 46.5225 7.19223 46.5225H9.26566C9.80255 46.5225 10.2376 46.0873 10.2376 45.5505Z" fill="#8E8E8E"/>
<path d="M52.8078 44.5786H50.7344C50.1975 44.5786 49.7625 45.0138 49.7625 45.5505C49.7625 46.0873 50.1975 46.5225 50.7344 46.5225H52.8078C53.3447 46.5225 53.7797 46.0873 53.7797 45.5505C53.7797 45.0138 53.3447 44.5786 52.8078 44.5786Z" fill="#8E8E8E"/>
<path d="M46.5875 52.8726H44.514C43.9771 52.8726 43.5421 53.3077 43.5421 53.8445C43.5421 54.3812 43.9771 54.8164 44.514 54.8164H46.5875C47.1244 54.8164 47.5594 54.3812 47.5594 53.8445C47.5594 53.3077 47.1244 52.8726 46.5875 52.8726Z" fill="#8E8E8E"/>
<path d="M15.486 52.8726H13.4125C12.8756 52.8726 12.4406 53.3077 12.4406 53.8445C12.4406 54.3812 12.8756 54.8164 13.4125 54.8164H15.486C16.0229 54.8164 16.4579 54.3812 16.4579 53.8445C16.4579 53.3077 16.0229 52.8726 15.486 52.8726Z" fill="#8E8E8E"/>
<path d="M18.6609 45.5505C18.6609 46.0873 19.0959 46.5225 19.6328 46.5225H21.7062C22.2431 46.5225 22.6782 46.0873 22.6782 45.5505C22.6782 45.0138 22.2431 44.5786 21.7062 44.5786H19.6328C19.0959 44.5786 18.6609 45.0138 18.6609 45.5505Z" fill="#8E8E8E"/>
<path d="M24.8812 45.5505C24.8812 46.0873 25.3163 46.5225 25.8531 46.5225H27.9266C28.4635 46.5225 28.8985 46.0873 28.8985 45.5505C28.8985 45.0138 28.4635 44.5786 27.9266 44.5786H25.8531C25.3163 44.5786 24.8812 45.0138 24.8812 45.5505Z" fill="#8E8E8E"/>
<path d="M55.9179 34.2117H50.6695V29.9352H51.9958C52.4024 31.1391 53.5418 32.0086 54.8812 32.0086C56.5604 32.0086 57.9266 30.6425 57.9266 28.9633V24.8164C57.9266 23.1372 56.5604 21.7711 54.8812 21.7711C53.5418 21.7711 52.4024 22.6406 51.9958 23.8445H47.5594V3.04536C47.5594 1.36613 46.1933 0 44.514 0H15.486C13.8067 0 12.4406 1.36613 12.4406 3.04536V23.8445H8.00423C7.59758 22.6406 6.45823 21.7711 5.11879 21.7711C3.43957 21.7711 2.07343 23.1372 2.07343 24.8164V28.9633C2.07343 30.6425 3.43957 32.0086 5.11879 32.0086C6.45823 32.0086 7.59758 31.1391 8.00423 29.9352H9.33045V34.2117H4.08207C1.83123 34.2117 0 36.0429 0 38.2937V55.9179C0 58.1688 1.83123 60 4.08207 60H55.9179C58.1688 60 60 58.1688 60 55.9179V38.2937C60 36.0429 58.1688 34.2117 55.9179 34.2117ZM8.16415 27.9914V25.7883H51.8359V27.9914H8.16415ZM40.3013 29.9352C39.9726 31.1719 39.0228 32.3325 37.542 33.2749C35.542 34.5474 32.8635 35.2484 30 35.2484C27.1365 35.2484 24.458 34.5474 22.4581 33.2749C20.9773 32.3325 20.0274 31.172 19.6988 29.9352H40.3013ZM54.8812 23.7149C55.4886 23.7149 55.9827 24.209 55.9827 24.8164V28.9633C55.9827 29.5707 55.4886 30.0648 54.8812 30.0648C54.2738 30.0648 53.7797 29.5707 53.7797 28.9633V24.8164C53.7797 24.209 54.2738 23.7149 54.8812 23.7149ZM14.3844 3.04536C14.3844 2.43797 14.8786 1.94384 15.486 1.94384H44.514C45.1214 1.94384 45.6156 2.43797 45.6156 3.04536V23.8445H14.3844V3.04536ZM5.11879 30.0648C4.5114 30.0648 4.01728 29.5707 4.01728 28.9633V24.8164C4.01728 24.209 4.5114 23.7149 5.11879 23.7149C5.72618 23.7149 6.2203 24.209 6.2203 24.8164V28.9633C6.2203 29.5707 5.72618 30.0648 5.11879 30.0648ZM58.0562 55.9179C58.0562 57.0969 57.0971 58.0562 55.9179 58.0562H4.08207C2.90294 58.0562 1.94384 57.0969 1.94384 55.9179V38.2937C1.94384 37.1147 2.90294 36.1555 4.08207 36.1555H10.3024C10.8393 36.1555 11.2743 35.7203 11.2743 35.1836V29.9352H17.7078C18.0346 31.8413 19.3216 33.5828 21.4146 34.9147C23.7224 36.3833 26.7714 37.1922 30 37.1922C33.2286 37.1922 36.2776 36.3833 38.5856 34.9147C40.6786 33.5828 41.9655 31.8413 42.2924 29.9352H48.7257V35.1836C48.7257 35.7203 49.1607 36.1555 49.6976 36.1555H55.9179C57.0971 36.1555 58.0562 37.1147 58.0562 38.2937V55.9179Z" fill="#8E8E8E"/>
<path d="M40.3672 18.6611H19.6328C19.0959 18.6611 18.6609 19.0963 18.6609 19.6331C18.6609 20.1698 19.0959 20.605 19.6328 20.605H40.3672C40.904 20.605 41.3391 20.1698 41.3391 19.6331C41.3391 19.0963 40.904 18.6611 40.3672 18.6611Z" fill="#8E8E8E"/>
<path d="M40.3672 13.4775H19.6328C19.0959 13.4775 18.6609 13.9127 18.6609 14.4495C18.6609 14.9862 19.0959 15.4214 19.6328 15.4214H40.3672C40.904 15.4214 41.3391 14.9862 41.3391 14.4495C41.3391 13.9127 40.904 13.4775 40.3672 13.4775Z" fill="#8E8E8E"/>
<path d="M40.3672 8.29395H19.6328C19.0959 8.29395 18.6609 8.72911 18.6609 9.26587C18.6609 9.80263 19.0959 10.2378 19.6328 10.2378H40.3672C40.904 10.2378 41.3391 9.80263 41.3391 9.26587C41.3391 8.72911 40.904 8.29395 40.3672 8.29395Z" fill="#8E8E8E"/>
</g>
<defs>
<clipPath id="clip0_6_583">
<rect width="60" height="60" fill="white"/>
</clipPath>
</defs>
</svg>
