<?xml version="1.0" standalone="no"?>
<!DOCTYPE svg PUBLIC "-//W3C//DTD SVG 1.1//EN" "http://www.w3.org/Graphics/SVG/1.1/DTD/svg11.dtd" >
<svg xmlns="http://www.w3.org/2000/svg" xmlns:xlink="http://www.w3.org/1999/xlink" version="1.1">
<metadata>
Created by FontForge 20170731 at Fri Apr  7 09:17:18 2023
 By Aleksey,,,
Copyright 1990-1999 as an unpublished work by Bitstream Inc.  All rights reserved.  Confidential.
</metadata>
<defs>
<font id="ZapfHumanist601BT-Demi" horiz-adv-x="1024" >
  <font-face 
    font-family="Zapf Humanist 601 Demi"
    font-weight="700"
    font-stretch="normal"
    units-per-em="2048"
    panose-1="0 0 0 0 0 0 0 0 0 0"
    ascent="1638"
    descent="-410"
    x-height="981"
    cap-height="1399"
    bbox="-342 -559 2265 1972"
    underline-thickness="126"
    underline-position="-405"
    unicode-range="U+0020-FB02"
  />
<missing-glyph horiz-adv-x="561" 
 />
    <glyph glyph-name=".notdef" horiz-adv-x="561" 
 />
    <glyph glyph-name=".null" horiz-adv-x="0" 
 />
    <glyph glyph-name="nonmarkingreturn" horiz-adv-x="682" 
 />
    <glyph glyph-name="space" unicode=" " horiz-adv-x="561" 
 />
    <glyph glyph-name="exclam" unicode="!" horiz-adv-x="673" 
d="M207 104q0 54 37 91.5t92 37.5t93 -37t38 -92q0 -54 -38 -92.5t-93 -38.5q-54 0 -91.5 38t-37.5 93zM301 375l-74 753q-10 100 -10 152q0 141 119 141t119 -139q0 -71 -9 -154l-75 -753q-13 8 -35 8q-19 0 -35 -8z" />
    <glyph glyph-name="quotedbl" unicode="&#x22;" horiz-adv-x="569" 
d="M199 1434v-553h-101v553h101zM473 1434v-553h-102v553h102z" />
    <glyph glyph-name="numbersign" unicode="#" horiz-adv-x="1574" 
d="M918 1454l-168 -483h264l172 483h127l-170 -483h315l-37 -107h-317l-98 -278h340l-37 -107h-340l-170 -479h-129l172 479h-269l-172 -479h-127l170 479h-327l39 107h325l101 278h-353l35 107h354l173 483h127zM975 864h-266l-97 -278h267z" />
    <glyph glyph-name="dollar" unicode="$" horiz-adv-x="1124" 
d="M147 88q19 60 62 191h12q20 -92 91.5 -141.5t199.5 -61.5v549q-201 52 -289 131t-88 219q0 149 99 243t278 113q0 75 -18 146q45 -9 57 -9q15 0 55 9q-6 -48 -10 -146q192 0 311 -78q-40 -72 -71 -161h-15q-30 165 -225 165v-473q213 -50 307 -134t94 -234
q0 -164 -107 -275.5t-294 -136.5v-37q0 -80 10 -155q-27 6 -55 6q-27 0 -57 -6q12 98 18 188q-244 9 -365 88zM512 807v446q-99 -9 -158 -71t-59 -154q0 -84 53 -137t164 -84zM596 80q233 37 233 272q0 96 -55 154.5t-178 95.5v-522z" />
    <glyph glyph-name="percent" unicode="%" horiz-adv-x="1550" 
d="M1518 328q0 -142 -91 -235t-229 -93q-139 0 -228 91.5t-89 236.5q0 142 89.5 234.5t227.5 92.5q141 0 230.5 -90t89.5 -237zM1198 61q76 0 113 73t37 224q0 236 -150 236q-149 0 -149 -295q0 -238 149 -238zM1190 1522h102l-950 -1712h-102zM678 1004q0 -142 -90 -235
t-228 -93q-139 0 -229 91.5t-90 236.5q0 142 90.5 234.5t228.5 92.5q140 0 229 -90t89 -237zM360 737q150 0 150 299q0 236 -150 236q-149 0 -149 -295q0 -240 149 -240z" />
    <glyph glyph-name="ampersand" unicode="&#x26;" horiz-adv-x="1462" 
d="M975 168q-179 -197 -430 -197q-199 0 -314.5 100t-115.5 263q0 134 87.5 240t268.5 196q-131 165 -131 317q0 134 92.5 222t239.5 88q134 0 213.5 -67t79.5 -177q0 -97 -70.5 -183.5t-214.5 -170.5q161 -214 356 -418q169 217 185 414h22l90 -97q-114 -246 -241 -385
l125 -143q45 -53 159 -170q-76 6 -143 6q-65 0 -123 -6zM911 233l-399 478q-107 -64 -158 -136t-51 -163q0 -134 90.5 -227t222.5 -93q157 0 295 141zM633 860q188 117 188 297q0 77 -42.5 123.5t-112.5 46.5q-77 0 -127 -49t-50 -127q0 -125 144 -291z" />
    <glyph glyph-name="quotesingle" unicode="'" horiz-adv-x="294" 
d="M199 1434v-553h-101v553h101z" />
    <glyph glyph-name="parenleft" unicode="(" horiz-adv-x="673" 
d="M528 -276q-356 362 -356 849q0 490 356 852q17 -33 43 -49q-247 -317 -247 -803q0 -485 247 -802q-28 -17 -43 -47z" />
    <glyph glyph-name="parenright" unicode=")" horiz-adv-x="673" 
d="M145 1425q355 -361 355 -850q0 -490 -355 -851q-14 29 -45 47q248 318 248 802q0 487 -248 803q29 18 45 49z" />
    <glyph glyph-name="asterisk" unicode="*" horiz-adv-x="1011" 
d="M426 1425q43 -12 88 -12q39 0 72 8q-40 -139 -43 -301q125 73 243 191q14 -80 82 -144q-145 -39 -288 -110q139 -78 284 -113q-60 -60 -82 -143q-108 111 -239 190q0 -155 45 -303q-41 12 -82 12q-39 0 -80 -12q34 146 43 305q-141 -84 -238 -190q-23 76 -84 143
q141 40 285 111q-134 71 -289 110q67 64 84 142q106 -106 242 -189q-9 164 -43 305z" />
    <glyph glyph-name="plus" unicode="+" horiz-adv-x="1705" 
d="M903 1221v-562h549v-98h-549v-561h-98v561h-551v98h551v562h98z" />
    <glyph glyph-name="comma" unicode="," horiz-adv-x="561" 
d="M61 -350l136 463q23 78 51.5 113.5t75.5 35.5q35 0 60.5 -24.5t25.5 -59.5q0 -22 -9.5 -48.5t-19.5 -43.5t-33 -55l-239 -396z" />
    <glyph glyph-name="hyphen" unicode="-" horiz-adv-x="673" 
d="M90 410v176h494v-176h-494z" />
    <glyph glyph-name="period" unicode="." horiz-adv-x="561" 
d="M150 104q0 54 38 91.5t93 37.5t93 -37t38 -92q0 -54 -38 -92.5t-93 -38.5q-54 0 -92.5 38t-38.5 93z" />
    <glyph glyph-name="slash" unicode="/" horiz-adv-x="575" 
d="M41 -190h-94l563 1726h96z" />
    <glyph glyph-name="zero" unicode="0" horiz-adv-x="1124" 
d="M74 666q0 345 123.5 521.5t363.5 176.5q239 0 363.5 -177t124.5 -521q0 -345 -124 -521t-364 -176q-239 0 -363 176.5t-124 520.5zM283 668q0 -320 64 -467.5t216 -147.5q150 0 213.5 147.5t63.5 467.5q0 317 -64 464.5t-213 147.5q-152 0 -216 -146.5t-64 -465.5z" />
    <glyph glyph-name="one" unicode="1" horiz-adv-x="1124" 
d="M467 0q35 345 35 940q0 125 -8 250l-103 -55q-119 -67 -192 -123q-34 61 -95 104q295 93 582 285l23 -6q-25 -473 -25 -1024q0 -236 4 -371q-52 14 -113 14q-56 0 -108 -14z" />
    <glyph glyph-name="two" unicode="2" horiz-adv-x="1124" 
d="M35 59q326 297 481.5 514t155.5 400q0 144 -64.5 224.5t-175.5 80.5q-107 0 -173 -69.5t-69 -192.5l-14 -4q-51 111 -104 190q169 166 395 166q193 0 305.5 -100t112.5 -264q0 -52 -12 -101.5t-40.5 -100.5t-59.5 -95t-84.5 -102t-98 -103t-117.5 -115l-219 -211h410
q122 0 270 29q-8 -44 -8 -103q0 -55 8 -102q-178 14 -553 14q-232 0 -346 -14v59z" />
    <glyph glyph-name="three" unicode="3" horiz-adv-x="1124" 
d="M358 653q4 16 4 56q0 41 -4 61q52 -6 101 -6q120 0 186 71t66 197q0 254 -234 254q-89 0 -150.5 -58t-80.5 -161l-15 -6q-24 66 -84 166q158 137 375 137q175 0 278 -84t103 -221q0 -122 -83 -208t-245 -130q193 -10 292.5 -94.5t99.5 -235.5q0 -188 -138.5 -305
t-369.5 -117q-201 0 -346 78q26 129 37 238h20q38 -123 107.5 -180.5t179.5 -57.5q137 0 219 88.5t82 239.5q0 142 -75.5 218.5t-215.5 76.5q-39 0 -109 -17z" />
    <glyph glyph-name="four" unicode="4" horiz-adv-x="1124" 
d="M659 0q19 124 19 238v143q-150 6 -307 6q-155 0 -314 -6v57q455 626 658 918q29 -2 82 -2q50 0 75 2q-14 -178 -14 -297v-543h45q78 0 133 8q-8 -36 -8 -78q0 -41 8 -77q-91 12 -184 12v-172q0 -59 6 -209q-55 10 -98 10t-101 -10zM678 516v633q-244 -314 -459 -633h459z
" />
    <glyph glyph-name="five" unicode="5" horiz-adv-x="1124" 
d="M152 303h22q34 -250 281 -250q144 0 229.5 88.5t85.5 241.5q0 154 -81.5 238t-229.5 84q-122 0 -203 -78l-31 18q13 94 13 201v51q0 328 -17 434q244 -14 354 -14q203 0 367 14q-8 -52 -8 -112q0 -51 4 -78q-96 2 -295 2q-201 0 -305 -2q-14 -175 -14 -391q108 51 237 51
q194 0 307 -103t113 -280q0 -202 -141.5 -324.5t-384.5 -122.5q-212 0 -342 80q26 154 39 252z" />
    <glyph glyph-name="six" unicode="6" horiz-adv-x="1124" 
d="M862 1241q-85 49 -153 49q-183 0 -284 -159.5t-110 -468.5q76 76 158 111.5t182 35.5q170 0 275.5 -110t105.5 -291q0 -191 -125.5 -314t-324.5 -123q-240 0 -365 150t-125 438q0 240 76 424.5t209.5 283.5t302.5 99q94 0 182 -27zM578 57q119 0 187.5 85.5t68.5 238.5
q0 160 -68.5 243t-196.5 83q-117 0 -186.5 -83t-69.5 -229q0 -161 71 -249.5t194 -88.5z" />
    <glyph glyph-name="seven" unicode="7" horiz-adv-x="1124" 
d="M186 0q409 645 697 1157h-338q-169 0 -350 -24q10 44 10 100q0 57 -10 98q98 -4 419 -4h197q191 0 283 4v-26q-461 -733 -713 -1305q-47 12 -94 12q-49 0 -101 -12z" />
    <glyph glyph-name="eight" unicode="8" horiz-adv-x="1124" 
d="M297 385q0 -164 69 -252t197 -88q126 0 195 88t69 252q0 338 -264 338q-131 0 -198.5 -85.5t-67.5 -252.5zM360 1038q0 -239 201 -239q99 0 150 60.5t51 178.5q0 120 -51.5 182t-149.5 62q-97 0 -149 -63t-52 -181zM422 764q-124 20 -189 90t-65 184q0 151 103.5 236.5
t289.5 85.5q188 0 290.5 -83t102.5 -233q0 -236 -252 -280v-14q161 -28 246.5 -124t85.5 -249q0 -191 -124.5 -298.5t-348.5 -107.5t-346.5 106t-122.5 300q0 154 85 250.5t245 122.5v14z" />
    <glyph glyph-name="nine" unicode="9" horiz-adv-x="1124" 
d="M172 135q92 -80 221 -80q179 0 296 166.5t126 454.5q-146 -146 -330 -146q-186 0 -291.5 109.5t-105.5 302.5q0 180 127.5 301t327.5 121q246 0 366.5 -145t120.5 -437q0 -371 -180.5 -592t-474.5 -221q-111 0 -185 29zM565 1282q-130 0 -203 -88t-73 -250
q0 -148 70.5 -230.5t191.5 -82.5q127 0 197.5 80.5t70.5 228.5q0 167 -66 254.5t-188 87.5z" />
    <glyph glyph-name="colon" unicode=":" horiz-adv-x="667" 
d="M205 823q0 54 37 91.5t92 37.5t93 -37t38 -92q0 -54 -38 -92.5t-93 -38.5q-54 0 -91.5 38t-37.5 93zM205 102q0 54 38 91.5t93 37.5t93 -37t38 -92q0 -54 -38 -92.5t-93 -38.5q-54 0 -92.5 38t-38.5 93z" />
    <glyph glyph-name="semicolon" unicode=";" horiz-adv-x="667" 
d="M207 823q0 54 38 91.5t93 37.5t93 -37t38 -92q0 -54 -38 -92.5t-93 -38.5q-54 0 -92.5 38t-38.5 93zM109 -350l137 463q23 78 50.5 113.5t74.5 35.5q35 0 60.5 -24.5t25.5 -59.5q0 -32 -14 -64t-46 -83l-239 -396z" />
    <glyph glyph-name="less" unicode="&#x3c;" horiz-adv-x="1705" 
d="M1442 1026l-1022 -416l1022 -413v-109l-1178 481v82l1178 484v-109z" />
    <glyph glyph-name="equal" unicode="=" horiz-adv-x="1705" 
d="M1452 846v-98h-1198v98h1198zM1452 473v-98h-1198v98h1198z" />
    <glyph glyph-name="greater" unicode="&#x3e;" horiz-adv-x="1705" 
d="M1442 651v-82l-1178 -481v109l1022 413l-1022 416v109z" />
    <glyph glyph-name="question" unicode="?" horiz-adv-x="903" 
d="M328 104q0 54 38 91.5t93 37.5t93 -37t38 -92q0 -54 -38 -92.5t-93 -38.5q-54 0 -92.5 38t-38.5 93zM575 385q-41 -8 -81 -8q-113 0 -178.5 61t-65.5 166q0 80 40.5 141t129.5 148l86 86q54 54 78 93t24 93q0 78 -51.5 128t-134.5 50q-74 0 -120.5 -37.5t-59.5 -109.5
h-15q-16 77 -37 150q125 79 269 79q146 0 233.5 -83t87.5 -218q0 -53 -12 -95.5t-40 -81t-54 -65t-74 -69.5l-82 -72q-104 -91 -104 -184q0 -54 29.5 -83.5t86.5 -29.5q26 0 64 9q-13 -45 -19 -68z" />
    <glyph glyph-name="at" unicode="@" horiz-adv-x="2048" 
d="M1210 469l62 248q-19 93 -76 145.5t-139 52.5q-155 0 -255 -134.5t-100 -336.5q0 -112 55 -173.5t152 -61.5q106 0 189 71t112 189zM1298 836l60 125h94l-139 -562q-17 -76 -17 -92q0 -43 28 -67.5t79 -24.5q107 0 211 82q96 76 150.5 203t54.5 284q0 164 -87.5 296
t-249.5 208t-370 76q-349 0 -582 -199q-297 -253 -297 -653q0 -173 59.5 -304.5t184.5 -232.5q101 -82 243 -128t302 -46q172 0 335.5 50t299.5 143l39 -55q-298 -222 -654 -222q-381 0 -622 185q-155 118 -229 273.5t-74 361.5q0 204 86 382t252 314q268 221 659 221
q164 0 309.5 -45t247.5 -123q260 -201 260 -508q0 -171 -62 -309.5t-181 -232.5q-142 -111 -310 -111q-192 0 -192 151q0 4 1 14t1 15q-51 -88 -127 -134t-168 -46q-153 0 -233 84t-80 244q0 232 135.5 389t328.5 157q190 0 254 -163z" />
    <glyph glyph-name="A" unicode="A" horiz-adv-x="1236" 
d="M-27 0q308 689 609 1425q27 -6 49 -6q26 0 47 6q278 -730 579 -1425q-78 10 -135 10q-59 0 -127 -10q-89 297 -182 530q-130 7 -231 7t-258 -7l-80 -219q-49 -137 -92 -311q-48 10 -89 10q-38 0 -90 -10zM369 637q111 -6 211 -6t188 6l-197 508z" />
    <glyph glyph-name="B" unicode="B" horiz-adv-x="1202" 
d="M383 784q25 -2 70 -2q198 0 299.5 73t101.5 212q0 118 -84.5 185t-239.5 67q-38 0 -137 -6q-10 -63 -10 -246v-283zM385 707v-402q0 -139 8 -213q64 -6 125 -6q190 0 288.5 79.5t98.5 231.5q0 162 -106 237t-330 75q-55 0 -84 -2zM166 0q24 408 24 834q0 334 -20 565
q51 -4 152 -4q61 0 173.5 3t163.5 3q191 0 298.5 -83t107.5 -226q0 -265 -367 -336q219 -14 323.5 -98.5t104.5 -251.5q0 -185 -144 -296.5t-396 -111.5q-29 0 -115.5 5t-146.5 5q-82 0 -158 -8z" />
    <glyph glyph-name="C" unicode="C" horiz-adv-x="1370" 
d="M1268 1106h-23q-134 225 -414 225q-242 0 -380 -164t-138 -458q0 -292 144.5 -463.5t382.5 -171.5q245 0 442 209l23 -11q-18 -86 -21 -170q-235 -131 -487 -131q-336 0 -527.5 194.5t-191.5 534.5q0 335 201.5 528t551.5 193q242 0 492 -110q-42 -82 -55 -205z" />
    <glyph glyph-name="D" unicode="D" horiz-adv-x="1564" 
d="M393 111q139 -17 219 -17q323 0 486.5 156.5t163.5 468.5q0 295 -157 445.5t-464 150.5q-98 0 -248 -12q-10 -587 -10 -605q0 -147 10 -587zM164 0q26 299 26 698q0 432 -26 701q88 -6 162 -6q66 0 211.5 7t224.5 7q357 0 542 -174t185 -508q0 -342 -211.5 -535.5
t-593.5 -193.5q-58 0 -178 6t-182 6q-89 0 -160 -8z" />
    <glyph glyph-name="E" unicode="E" horiz-adv-x="1028" 
d="M164 0q26 299 26 698q0 432 -26 701q203 -6 389 -6q189 0 362 6q-6 -34 -6 -70q0 -33 6 -74q-143 35 -337 35h-187q-2 -152 -2 -286v-211h207q129 0 285 18q-4 -36 -4 -61q0 -20 4 -74q-213 16 -291 16h-201v-217q0 -145 8 -366h187q174 0 338 34q-7 -44 -7 -73
q0 -30 7 -70q-172 6 -363 6q-189 0 -395 -6z" />
    <glyph glyph-name="F" unicode="F" horiz-adv-x="1005" 
d="M389 692v-217q0 -297 12 -475q-49 10 -118 10q-68 0 -119 -10q26 299 26 698q0 432 -26 701q205 -6 395 -6q191 0 363 6q-7 -40 -7 -70q0 -27 7 -74q-169 35 -338 35h-193q-2 -152 -2 -286v-211h207q129 0 285 18q-4 -36 -4 -61q0 -20 4 -74q-213 16 -291 16h-201z" />
    <glyph glyph-name="G" unicode="G" horiz-adv-x="1503" 
d="M1415 53q-300 -82 -563 -82q-368 0 -571 192.5t-203 538.5q0 329 215 526t579 197q310 0 525 -122q-51 -91 -54 -195h-32q-155 231 -453 231q-247 0 -399 -170.5t-152 -455.5q0 -305 149 -476t414 -171q167 0 322 73q6 102 6 201q0 156 -14 293q62 -10 108 -10
q62 0 123 12q-10 -167 -10 -295q0 -130 10 -287z" />
    <glyph glyph-name="H" unicode="H" horiz-adv-x="1554" 
d="M389 698v-223q0 -297 12 -475q-49 10 -118 10q-68 0 -119 -10q26 299 26 698q0 432 -26 701q65 -10 119 -10q53 0 118 10q-12 -200 -12 -395v-183q262 -8 389 -8q129 0 387 8v183q0 204 -12 395q68 -10 119 -10q54 0 119 10q-25 -259 -25 -701q0 -410 25 -698
q-49 10 -119 10q-68 0 -119 -10q12 168 12 475v223q-129 4 -387 4t-389 -4z" />
    <glyph glyph-name="I" unicode="I" horiz-adv-x="577" 
d="M166 0q27 310 27 698q0 422 -27 701q68 -10 123 -10t123 10q-25 -259 -25 -701q0 -410 25 -698q-51 10 -123 10t-123 -10z" />
    <glyph glyph-name="J" unicode="J" horiz-adv-x="577" 
d="M-106 -272q149 30 219 98q58 58 73 161.5t15 317.5q0 792 -31 1094q68 -10 123 -10t123 10q-27 -285 -27 -701q0 -124 1 -235.5t2 -178.5t1 -81q0 -143 -24 -239t-81 -162t-149.5 -98t-232.5 -38z" />
    <glyph glyph-name="K" unicode="K" horiz-adv-x="1232" 
d="M385 686v-215q0 -156 16 -471q-49 10 -118 10q-68 0 -119 -10q26 299 26 698q0 432 -26 701q65 -10 119 -10q53 0 118 10q-16 -334 -16 -395v-254q316 233 647 649q66 -4 105 -4q34 0 120 4q-312 -266 -673 -617q294 -368 702 -782h-166q-82 0 -153 -14
q-27 48 -70.5 106.5t-77 98t-100.5 116.5z" />
    <glyph glyph-name="L" unicode="L" horiz-adv-x="944" 
d="M164 0q26 299 26 698q0 432 -26 701q52 -8 119 -8q68 0 120 8q-14 -235 -14 -555q0 -544 8 -735h207q174 0 338 34q-6 -38 -6 -73q0 -36 6 -70q-184 6 -379 6q-193 0 -399 -6z" />
    <glyph glyph-name="M" unicode="M" horiz-adv-x="1853" 
d="M84 0q145 740 203 1425h78q317 -638 573 -1106q266 485 563 1106h78q63 -749 168 -1425q-62 16 -117 16q-51 0 -117 -16q-20 504 -96 1042l-293 -575q-143 -279 -209 -467q-8 4 -24 4q-17 0 -27 -4q-245 531 -522 1028l-59 -567q-24 -242 -29 -461q-48 10 -86 10
q-36 0 -84 -10z" />
    <glyph glyph-name="N" unicode="N" horiz-adv-x="1517" 
d="M147 -2q35 294 35 1116q0 138 -6 311h74q474 -552 981 -1077v559q0 195 -25 492q44 -6 84 -6q42 0 80 6q-35 -240 -35 -1114q0 -93 6 -310h-67q-128 171 -389 449l-594 633v-557q0 -282 26 -502q-48 10 -86 10q-36 0 -84 -10z" />
    <glyph glyph-name="O" unicode="O" horiz-adv-x="1681" 
d="M842 -27q-356 0 -560 195t-204 530q0 336 203.5 531.5t558.5 195.5q363 0 562.5 -191.5t199.5 -535.5q0 -342 -200.5 -533.5t-559.5 -191.5zM840 1335q-255 0 -394 -164t-139 -462q0 -314 137.5 -480t395.5 -166q257 0 394.5 164t137.5 471t-137.5 472t-394.5 165z" />
    <glyph glyph-name="P" unicode="P" horiz-adv-x="1103" 
d="M166 0q24 408 24 834q0 334 -20 565q74 -6 143 -6q61 0 166.5 5t149.5 5q222 0 338 -93.5t116 -269.5q0 -188 -145.5 -298.5t-402.5 -110.5q-93 0 -152 2v-172q0 -217 10 -461q-46 10 -112 10t-115 -10zM383 715q23 -2 66 -2q206 0 310.5 81t104.5 240q0 134 -85.5 209.5
t-243.5 75.5q-47 0 -142 -6q-10 -164 -10 -279v-319z" />
    <glyph glyph-name="Q" unicode="Q" horiz-adv-x="1681" 
d="M840 1335q-255 0 -394 -164t-139 -462q0 -314 137.5 -480t395.5 -166q257 0 394.5 164t137.5 471t-137.5 472t-394.5 165zM909 -25q-10 0 -31.5 -1t-31.5 -1q-361 0 -564.5 193.5t-203.5 531.5q0 336 203.5 531.5t558.5 195.5q363 0 562.5 -191.5t199.5 -535.5
q0 -532 -480 -688l273 -184q132 -89 217 -129q-105 -34 -187 -100q-49 38 -103.5 80t-79.5 61.5t-34 25.5z" />
    <glyph glyph-name="R" unicode="R" horiz-adv-x="1175" 
d="M377 758q25 -2 69 -2q201 0 305.5 76t104.5 219q0 130 -89 200t-257 70q-64 0 -121 -8q-12 -100 -12 -260v-295zM377 461q0 -174 14 -461q-46 10 -112 10q-64 0 -113 -10q24 405 24 840q0 316 -20 559q74 -6 141 -6q62 0 166 5t144 5q217 0 330.5 -84t113.5 -242
q0 -140 -103 -234.5t-298 -129.5q316 -419 548 -713q-82 10 -149 10q-63 0 -145 -10q-208 345 -492 684h-49v-223z" />
    <glyph glyph-name="S" unicode="S" horiz-adv-x="1048" 
d="M115 307l18 4q44 -118 133 -180.5t211 -62.5q139 0 220 75.5t81 200.5q0 51 -14.5 91t-36.5 68t-65.5 55t-83.5 45.5t-109 45.5q-99 38 -161 71t-111.5 77.5t-71 102t-21.5 134.5q0 183 118 288t327 105q188 0 346 -88q-48 -99 -66 -200h-20q-20 101 -92 155t-189 54
q-118 0 -188 -66t-70 -174q0 -54 18.5 -94.5t60.5 -72.5t90 -55t128 -52q105 -39 170.5 -72t118.5 -79.5t76.5 -107t23.5 -143.5q0 -197 -141.5 -329t-365.5 -132q-233 0 -373 119q34 106 39 217z" />
    <glyph glyph-name="T" unicode="T" horiz-adv-x="1085" 
d="M440 1286h-125q-72 0 -299 -29q11 46 11 72q0 28 -11 70q393 -17 527 -17q174 0 526 17q-8 -50 -8 -74t8 -74q-200 35 -309 35h-115q-10 -150 -10 -235q0 -793 27 -1051q-49 10 -119 10q-68 0 -119 -10q25 276 25 895q0 222 -9 391z" />
    <glyph glyph-name="U" unicode="U" horiz-adv-x="1521" 
d="M152 1399q55 -8 122 -8q66 0 121 8q-22 -248 -22 -355v-360q0 -287 35 -375q46 -117 133 -170t233 -53q215 0 338 117q71 68 90 164t19 274v344q0 244 -23 414q41 -8 90 -8q51 0 90 8q-26 -175 -26 -498v-350q0 -578 -613 -578q-359 0 -489 205q-49 75 -62.5 162.5
t-13.5 228.5v478q0 194 -22 352z" />
    <glyph glyph-name="V" unicode="V" horiz-adv-x="1280" 
d="M551 0q-97 365 -551 1399q60 -8 131 -8q72 0 129 8q52 -180 201 -578l219 -590l199 523q151 398 215 645q66 -8 94 -8q30 0 92 8q-372 -792 -571 -1399q-42 10 -78 10q-35 0 -80 -10z" />
    <glyph glyph-name="W" unicode="W" horiz-adv-x="1961" 
d="M432 0q-169 644 -434 1399q52 -8 115 -8q65 0 120 8q53 -235 160 -578l178 -565q210 570 359 1143q39 -8 80 -8q44 0 80 8q169 -595 364 -1141l174 526q106 319 152 615q41 -8 90 -8q51 0 92 8q-279 -686 -477 -1399q-45 10 -82 10q-34 0 -82 -10q-86 328 -176 580
l-184 520l-224 -668q-88 -267 -135 -432q-48 10 -86 10q-36 0 -84 -10z" />
    <glyph glyph-name="X" unicode="X" horiz-adv-x="1107" 
d="M0 0q127 176 301 430l176 256q-225 373 -446 713q63 -8 137 -8q76 0 133 8q137 -303 287 -547l143 235q90 145 164 312q44 -8 96 -8q55 0 99 8q-87 -113 -302 -420l-147 -211q239 -416 467 -768q-78 10 -139 10t-129 -10q-133 272 -312 596l-131 -219
q-149 -250 -207 -377q-52 10 -94 10q-41 0 -96 -10z" />
    <glyph glyph-name="Y" unicode="Y" horiz-adv-x="1062" 
d="M428 0q21 170 21 408v172q-234 431 -492 819q63 -8 137 -8t129 8q61 -161 191 -385l174 -299q194 320 352 684q39 -8 88 -8q51 0 90 8q-147 -231 -282 -459l-189 -317v-263q0 -182 12 -360q-65 10 -118 10q-51 0 -113 -10z" />
    <glyph glyph-name="Z" unicode="Z" horiz-adv-x="1241" 
d="M12 0v53q476 625 885 1231h-246q-373 0 -561 -31q8 33 8 74t-8 72q192 -15 543 -15q371 0 571 15v-45q-503 -641 -901 -1235h338q230 0 563 37q-8 -33 -8 -76q0 -44 8 -80q-162 14 -692 14q-361 0 -500 -14z" />
    <glyph glyph-name="bracketleft" unicode="[" horiz-adv-x="673" 
d="M174 -240q14 133 14 621v397q0 488 -14 621q91 -6 184 -6q94 0 189 6q0 -6 -1 -20t-1 -21q0 -8 1 -24t1 -25q-85 10 -152 10q-44 0 -67 -2q-4 -704 -4 -737q0 -30 4 -738q23 -2 67 -2q67 0 152 10q0 -8 -1 -24t-1 -23q0 -8 1 -22t1 -21q-110 7 -189 7q-77 0 -184 -7z" />
    <glyph glyph-name="backslash" unicode="\" horiz-adv-x="575" 
d="M510 -190l-565 1726h96l565 -1726h-96z" />
    <glyph glyph-name="bracketright" unicode="]" horiz-adv-x="673" 
d="M498 -240q-103 7 -183 7q-75 0 -190 -7q2 14 2 43q0 31 -2 47q85 -10 151 -10q47 0 70 2q2 352 2 738q0 385 -2 737q-23 2 -70 2q-66 0 -151 -10q2 18 2 49q0 29 -2 41q99 -6 190 -6q95 0 183 6q-15 -141 -15 -496v-645q0 -357 15 -498z" />
    <glyph glyph-name="asciicircum" unicode="^" horiz-adv-x="2048" 
d="M1094 1458l530 -557h-143l-457 455l-459 -455h-143l532 557h140z" />
    <glyph glyph-name="underscore" unicode="_" 
d="M1024 -383v-100h-1024v100h1024z" />
    <glyph glyph-name="grave" unicode="`" 
d="M688 1116h-74l-301 182q-45 29 -64.5 50.5t-19.5 50.5q0 32 22.5 56t53.5 24q51 0 107 -62z" />
    <glyph glyph-name="a" unicode="a" horiz-adv-x="970" 
d="M659 518l-122 -24q-141 -27 -208 -79.5t-67 -140.5q0 -83 45.5 -131.5t120.5 -48.5q102 0 166.5 63t64.5 173v188zM659 127q-129 -154 -311 -154q-127 0 -204.5 75t-77.5 194q0 74 18.5 124t63 84.5t101.5 55t150 41.5l187 41q43 9 61.5 32t18.5 72q0 108 -62 170
t-170 62q-87 0 -151 -42.5t-95 -119.5l-43 16l11 111q130 121 329 121q189 0 269 -77t80 -249v-485q0 -68 15.5 -92.5t72.5 -24.5q2 0 9.5 0.5t21 1t28.5 0.5v-43q-111 -51 -186 -51q-61 0 -94 33t-42 104z" />
    <glyph glyph-name="b" unicode="b" horiz-adv-x="1138" 
d="M848 489q0 197 -73 307.5t-197 110.5q-126 0 -200.5 -110.5t-74.5 -307.5q0 -198 73.5 -306.5t201.5 -108.5q126 0 198 107.5t72 307.5zM125 1536q47 -8 102 -8q57 0 101 8q-13 -131 -13 -406v-299q52 90 132.5 132.5t197.5 42.5q194 0 303 -138.5t109 -394.5
q0 -230 -118.5 -364t-317.5 -134q-198 0 -332 146q-59 -47 -109 -121h-63q20 193 20 698v226q0 420 -12 612z" />
    <glyph glyph-name="c" unicode="c" horiz-adv-x="966" 
d="M891 184l18 -4l-16 -117q-122 -88 -332 -88q-228 0 -368 137t-140 361q0 251 144 393t399 142q189 0 328 -80q-28 -83 -43 -189h-25q-50 191 -248 191q-162 0 -253 -113t-91 -319t96.5 -320.5t264.5 -114.5q171 0 266 121z" />
    <glyph glyph-name="d" unicode="d" horiz-adv-x="1138" 
d="M1016 1536q-12 -211 -12 -561q0 -711 12 -975q-55 10 -96 10q-44 0 -99 -10q12 108 15 182q-59 -107 -139 -157t-195 -50q-198 0 -308 137t-110 390q0 234 112.5 369t299.5 135q227 0 329 -175v299q0 285 -12 406q47 -8 102 -8q57 0 101 8zM293 498q0 -196 72 -302
t198 -106q127 0 201 106.5t74 297.5q0 197 -73.5 305t-201.5 108q-124 0 -197 -108t-73 -301z" />
    <glyph glyph-name="e" unicode="e" horiz-adv-x="1019" 
d="M268 500v-19q0 -201 88.5 -310.5t247.5 -109.5q96 0 173.5 35t125.5 97l27 -7q-11 -47 -17 -118q-156 -95 -360 -95q-230 0 -360 133.5t-130 368.5q0 242 129.5 386.5t346.5 144.5q203 0 317.5 -118.5t114.5 -330.5q0 -41 -2 -61q-308 8 -441 8q-92 0 -260 -4zM274 584
h99q67 0 395 4q4 36 4 59q0 128 -65 203.5t-170 75.5q-116 0 -184.5 -88t-78.5 -254z" />
    <glyph glyph-name="f" unicode="f" horiz-adv-x="595" 
d="M174 0q16 152 16 489v408h-22q-61 0 -150 -14q7 31 7 51q0 22 -7 47q57 -8 132 -8h40q4 124 40.5 232.5t90.5 179t117.5 111t124.5 40.5q43 0 90 -12q-16 -71 -26 -181q-76 33 -140 33q-145 0 -145 -162q0 -42 8 -94l21 -147h49q93 0 174 8q-8 -21 -8 -49t8 -49
q-116 14 -195 14h-28v-346q0 -311 12 -551q-58 10 -104 10q-47 0 -105 -10z" />
    <glyph glyph-name="g" unicode="g" horiz-adv-x="1030" 
d="M291 672q0 -119 57.5 -186.5t151.5 -67.5q101 0 159 72.5t58 205.5q0 117 -58 179.5t-165 62.5q-90 0 -146.5 -71.5t-56.5 -194.5zM291 14q-168 40 -168 172q0 134 168 193v14q-92 23 -142.5 94.5t-50.5 180.5q0 150 106 245t279 95q61 0 151.5 -16.5t117.5 -16.5h100
q6 0 24.5 1l55.5 3l74 4v-111q-80 13 -199 23q102 -74 102 -211q0 -147 -111 -241.5t-284 -94.5q-35 0 -78.5 5t-52.5 5q-45 0 -72.5 -27.5t-27.5 -72.5q0 -100 161 -100h199q183 0 273 -74.5t90 -226.5q0 -178 -149.5 -297t-391.5 -119q-197 0 -307.5 77t-110.5 206
q0 105 62 179t182 111zM205 -244q0 -107 79.5 -169t219.5 -62q157 0 247.5 72t90.5 190q0 107 -79 162t-233 55q-325 0 -325 -248z" />
    <glyph glyph-name="h" unicode="h" horiz-adv-x="1138" 
d="M141 0q17 135 17 1026v98q0 253 -17 412q47 -8 103 -8t100 8q-8 -88 -8 -236v-487q128 193 344 193q159 0 246 -105q31 -37 46.5 -81t18 -77.5t2.5 -97.5v-369q0 -172 6 -276q-55 10 -100 10q-44 0 -102 -10q14 312 14 459v121q0 85 -8.5 134.5t-36.5 86.5
q-63 78 -176 78q-134 0 -195 -100.5t-61 -309.5q0 -212 10 -469q-55 10 -100 10t-103 -10z" />
    <glyph glyph-name="i" unicode="i" horiz-adv-x="512" 
d="M143 0q15 182 15 592q0 245 -15 389q47 -8 103 -8q57 0 104 8q-14 -125 -14 -363q0 -402 14 -618q-58 10 -104 10q-45 0 -103 -10zM139 1327q0 50 32 82.5t83 32.5q56 0 87.5 -31t31.5 -86q0 -50 -30 -79t-81 -29q-57 0 -90 30t-33 80z" />
    <glyph glyph-name="j" unicode="j" horiz-adv-x="512" 
d="M172 -39v627q0 86 -20 393q49 -8 106 -8q60 0 107 8q-13 -125 -13 -371v-633q0 -65 -0.5 -96.5t-4.5 -82t-12.5 -80t-23.5 -66.5t-39.5 -66t-58.5 -57q-106 -86 -276 -86h-21v55q57 2 98 14t69.5 38.5t45.5 60t27 89t13 114.5t3 147zM139 1327q0 50 32 82.5t83 32.5
q56 0 87.5 -31t31.5 -86q0 -50 -30 -79t-81 -29q-57 0 -90 30t-33 80z" />
    <glyph glyph-name="k" unicode="k" 
d="M145 0q13 379 13 1012q0 341 -13 524q47 -8 105 -8q56 0 100 8q-16 -251 -16 -600v-367h35q183 157 395 412q41 -10 104 -10q56 0 105 8l-449 -381l297 -352q99 -117 197 -215v-31q-72 10 -129 10q-55 0 -123 -10q-114 167 -223 297l-140 166q-26 29 -55 29h-14v-154
q0 -106 16 -338q-55 10 -102 10q-45 0 -103 -10z" />
    <glyph glyph-name="l" unicode="l" horiz-adv-x="512" 
d="M154 0q8 131 8 176q0 101 2 385t2 467v180q0 206 -12 328q47 -8 102 -8t102 8q-14 -139 -14 -381v-102q0 -889 14 -1053q-58 10 -102 10t-102 -10z" />
    <glyph glyph-name="m" unicode="m" horiz-adv-x="1748" 
d="M137 0q15 161 15 590q0 257 -15 391q44 -8 99 -8q52 0 96 8q-4 -100 -6 -176q126 201 350 201q217 0 268 -189q137 189 348 189q158 0 246 -105q24 -28 38 -56.5t20 -64.5t7 -61t1 -74v-301q0 -211 8 -344q-58 10 -103 10q-43 0 -98 -10q14 304 14 477q0 86 -0.5 125.5
t-4.5 83t-13 64.5q-52 129 -195 129q-133 0 -192 -100.5t-59 -309.5q0 -212 10 -469q-55 10 -99 10q-43 0 -98 -10q14 308 14 457v102q0 95 -8.5 149.5t-38.5 92.5q-60 78 -168 78q-131 0 -190 -100.5t-59 -309.5q0 -219 10 -469q-55 10 -101 10q-41 0 -96 -10z" />
    <glyph glyph-name="n" unicode="n" horiz-adv-x="1130" 
d="M137 0q15 161 15 590q0 257 -15 391q44 -8 99 -8q52 0 96 8q-4 -100 -6 -176q126 201 350 201q77 0 141.5 -27.5t106.5 -75.5q41 -50 52 -106.5t11 -151.5v-301q0 -211 8 -344q-55 10 -100 10q-44 0 -102 -10q14 312 14 459v104q0 93 -8.5 146.5t-38.5 91.5
q-63 78 -174 78q-134 0 -195 -100.5t-61 -309.5q0 -212 10 -469q-55 10 -100 10t-103 -10z" />
    <glyph glyph-name="o" unicode="o" horiz-adv-x="1130" 
d="M1069 489q0 -234 -137.5 -374t-366.5 -140q-235 0 -369.5 136.5t-134.5 377.5q0 235 137.5 376t366.5 141q233 0 368.5 -139t135.5 -378zM858 489q0 212 -77.5 326.5t-213.5 114.5q-138 0 -216.5 -115.5t-78.5 -325.5q0 -208 79 -323t216 -115q135 0 213 115t78 323z" />
    <glyph glyph-name="p" unicode="p" horiz-adv-x="1138" 
d="M848 483q0 196 -72 302t-198 106q-127 0 -201 -106.5t-74 -297.5q0 -197 73.5 -305t201.5 -108q124 0 197 108t73 301zM125 -559q12 203 12 571q0 702 -12 969q44 -8 98 -8q52 0 96 8q-11 -82 -14 -180q59 106 140 155.5t196 49.5q191 0 303.5 -139t112.5 -382
q0 -234 -113.5 -372t-298.5 -138q-117 0 -197.5 42.5t-132.5 132.5v-300q0 -276 13 -409q-55 10 -101 10q-44 0 -102 -10z" />
    <glyph glyph-name="q" unicode="q" horiz-adv-x="1138" 
d="M291 483q0 -193 73 -301t197 -108q128 0 201.5 108t73.5 305q0 191 -74 297.5t-201 106.5q-126 0 -198 -106t-72 -302zM1014 -559q-55 10 -101 10q-44 0 -102 -10q12 123 12 409v300q-52 -91 -132 -133t-197 -42q-185 0 -298.5 138t-113.5 372q0 243 112.5 382t303.5 139
q115 0 196 -49.5t140 -155.5q-3 88 -15 180q44 -8 99 -8q52 0 96 8q-13 -247 -13 -969q0 -351 13 -571z" />
    <glyph glyph-name="r" unicode="r" horiz-adv-x="729" 
d="M137 0q17 126 17 649q0 203 -17 332q49 -8 109 -8q59 0 106 8q-16 -106 -16 -182v-25q60 117 138.5 173.5t182.5 56.5q24 0 48 -3q-9 -70 -9 -96q0 -21 9 -100q-93 22 -138 22q-96 0 -159 -69q-49 -54 -62.5 -110.5t-13.5 -139.5v-213q0 -125 12 -295q-58 10 -104 10
q-45 0 -103 -10z" />
    <glyph glyph-name="s" unicode="s" horiz-adv-x="888" 
d="M156 244h18q23 -97 82 -143t160 -46q105 0 163 47t58 131q0 20 -3 37t-11.5 31t-15.5 24t-24 20.5t-27.5 16.5t-35.5 15t-38.5 13.5t-46 14.5t-48.5 15q-141 44 -204.5 105.5t-63.5 164.5q0 141 100 228.5t266 87.5q129 0 267 -66q-7 -22 -28 -82.5t-32 -95.5h-20
q-25 160 -203 160q-87 0 -140 -45.5t-53 -118.5q0 -37 11 -62t47.5 -45t59 -28t90.5 -29q25 -8 38 -12q74 -23 122 -45.5t84.5 -54.5t52.5 -75t16 -102q0 -152 -108 -241t-298 -89q-156 0 -289 62q9 40 29 114.5t25 92.5z" />
    <glyph glyph-name="t" unicode="t" horiz-adv-x="636" 
d="M199 891h-29q-68 0 -139 -12q4 18 4 51q0 35 -4 51q71 -12 168 -16v79q0 40 -9 154q106 30 207 94q-20 -149 -20 -231v-96q114 0 223 16q-4 -32 -4 -51q0 -15 4 -51q-91 12 -188 12h-37l-10 -502v-49q0 -149 33 -210.5t132 -61.5q28 0 93 10v-70q-95 -33 -185 -33
q-131 0 -192.5 70.5t-61.5 218.5q0 42 4 148.5t5 171.5z" />
    <glyph glyph-name="u" unicode="u" horiz-adv-x="1130" 
d="M993 981q-14 -151 -14 -590q0 -266 14 -391q-55 10 -96 10q-43 0 -98 -10q1 25 4 84t4 92q-65 -103 -146.5 -152t-189.5 -49q-170 0 -249 91t-79 280v291q0 211 -8 344q47 -8 103 -8q58 0 102 8q-18 -390 -18 -610q0 -138 53 -203.5t168 -65.5q138 0 199 100t61 310
q0 216 -10 469q47 -8 100 -8q56 0 100 8z" />
    <glyph glyph-name="v" unicode="v" horiz-adv-x="980" 
d="M408 0q-69 266 -408 981q60 -8 129 -8q70 0 125 8q68 -231 125 -377l160 -403l170 454q51 136 104 326q41 -8 88 -8q49 0 88 8q-214 -393 -432 -981q-37 12 -76 12q-35 0 -73 -12z" />
    <glyph glyph-name="w" unicode="w" horiz-adv-x="1568" 
d="M369 0q-151 466 -363 981q55 -8 121 -8q69 0 121 8q25 -154 110 -391l136 -377q147 401 254 768q39 -8 83 -8q46 0 82 8q19 -92 103 -348l141 -426l152 414q47 127 108 360q36 -8 80 -8q46 0 82 8q-132 -254 -405 -981q-42 10 -72 10t-72 -10q-66 237 -112 360l-140 383
q-136 -351 -256 -743q-42 10 -76 10q-32 0 -77 -10z" />
    <glyph glyph-name="x" unicode="x" horiz-adv-x="948" 
d="M4 0q128 148 393 477l-157 213q-84 114 -230 291q60 -8 133 -8q70 0 125 8q123 -204 236 -358l108 151q105 146 140 207q36 -8 84 -8q49 0 90 8q-240 -271 -371 -432q176 -277 397 -549q-72 10 -127 10t-127 -10q-106 182 -252 397l-112 -157q-94 -134 -148 -240
q-48 10 -90 10q-37 0 -92 -10z" />
    <glyph glyph-name="y" unicode="y" horiz-adv-x="995" 
d="M438 -35q-187 503 -430 1016q55 -8 121 -8q69 0 121 8q48 -174 112 -332l183 -456l168 428q39 97 118 360q39 -8 84 -8q46 0 82 8q-489 -1007 -659 -1540q-45 10 -82 10q-36 0 -84 -10z" />
    <glyph glyph-name="z" unicode="z" horiz-adv-x="972" 
d="M25 0v45q344 439 602 834h-221q-143 0 -312 -31q6 38 6 70q0 33 -6 63q148 -12 395 -12q289 0 420 12v-43q-317 -387 -614 -836h223q131 0 375 29q-8 -46 -8 -65q0 -20 8 -66q-341 12 -553 12q-168 0 -315 -12z" />
    <glyph glyph-name="braceleft" unicode="{" 
d="M854 1370h-37q-71 0 -114 -12t-67.5 -44t-33 -77t-8.5 -121v-242q0 -158 -39.5 -234t-157.5 -110q118 -34 157.5 -110t39.5 -234v-241q0 -75 8 -119.5t31.5 -77t65 -45t110.5 -12.5q7 0 22 1t23 1v-107h-47q-71 0 -122.5 7.5t-89.5 26.5t-61.5 45.5t-37.5 70t-19.5 95
t-5.5 124.5v244q0 153 -56.5 216.5t-195.5 63.5q-7 0 -22 -1t-23 -1v109q8 0 23 -1t22 -1q139 0 195.5 63.5t56.5 216.5v242q0 110 13 176.5t50.5 112.5t102 64t170.5 18h47v-107z" />
    <glyph glyph-name="bar" unicode="|" 
d="M567 1565v-2048h-108v2048h108z" />
    <glyph glyph-name="braceright" unicode="}" 
d="M555 1106v-242q0 -153 56.5 -216.5t195.5 -63.5q7 0 22 1t23 1v-109q-8 0 -23 1t-22 1q-139 0 -195.5 -63.5t-56.5 -216.5v-244q0 -110 -13 -176t-50.5 -112t-102 -63.5t-170.5 -17.5h-47v107h39q70 0 112.5 11.5t67 42.5t33 76.5t8.5 121.5v241q0 159 39 234.5
t158 109.5q-119 34 -158 109.5t-39 234.5v242q0 76 -8 121t-31.5 77.5t-65 45t-110.5 12.5q-7 0 -22 -1t-23 -1v107h47q106 0 170.5 -18t102 -64t50.5 -112.5t13 -176.5z" />
    <glyph glyph-name="asciitilde" unicode="~" horiz-adv-x="1705" 
d="M1530 637q-201 -143 -387 -143q-20 0 -41.5 2t-37.5 4t-39 7.5t-34 8t-37 11t-32.5 10.5t-35 12.5t-32.5 11.5q-69 25 -99.5 35.5t-86.5 22.5t-103 12q-87 0 -180 -40t-207 -120v113q210 145 387 145q52 0 108.5 -11.5t86.5 -21.5t94 -34q4 -1 40 -14.5t44 -16t38 -12
t43.5 -12.5t38 -8.5t44.5 -7t41 -1.5q89 0 181.5 40t205.5 120v-113z" />
    <glyph glyph-name="exclamdown" unicode="&#xa1;" horiz-adv-x="673" 
d="M467 1292q0 -54 -38 -91.5t-93 -37.5q-54 0 -91.5 37t-37.5 92t37 93t92 38q54 0 92.5 -38t38.5 -93zM371 1020l75 -754q9 -90 9 -151q0 -142 -119 -142q-117 0 -117 140q0 79 8 153l74 754q24 -8 35 -8q15 0 35 8z" />
    <glyph glyph-name="cent" unicode="&#xa2;" horiz-adv-x="1124" 
d="M952 207l19 -4l-19 -117q-111 -80 -301 -86v-45q0 -73 6 -164h-96q6 70 6 156v55q-213 25 -332.5 156t-119.5 338q0 228 118 365.5t334 162.5q0 110 -6 180h96q-6 -51 -6 -174q193 0 332 -80q-29 -84 -43 -188h-22q-49 190 -254 190h-13v-864q14 -2 43 -2q158 0 258 121z
M567 104v836q-241 -77 -241 -420q0 -166 61.5 -272t179.5 -144z" />
    <glyph glyph-name="sterling" unicode="&#xa3;" horiz-adv-x="1124" 
d="M98 0q6 38 6 74t-6 73l76 7q75 5 124.5 80t49.5 200q0 77 -8 150l-8 82h-86q-58 0 -131 -13q4 20 4 56q0 33 -4 47q57 -17 131 -17h82q-15 135 -15 176q0 201 135.5 324t354.5 123q140 0 280 -64q-40 -78 -84 -200h-14q-23 99 -75.5 145.5t-141.5 46.5q-125 0 -191.5 -86
t-66.5 -248q0 -53 6 -153l4 -64h80q91 0 191 17q-7 -28 -7 -51q0 -21 7 -52q-82 13 -216 13h-53q0 -8 1 -25t1 -25q0 -245 -153 -401l-52 -53h146q345 0 627 39q-9 -50 -9 -101q0 -48 9 -100q-246 12 -529 12q-313 0 -465 -12z" />
    <glyph glyph-name="currency" unicode="&#xa4;" horiz-adv-x="1124" 
d="M903 594l-29 -98q-205 6 -409 6h-64q15 -222 100.5 -335.5t233.5 -113.5q106 0 184.5 54.5t157.5 173.5l23 -11q-18 -82 -21 -170q-98 -68 -178.5 -99.5t-177.5 -31.5q-214 0 -353 140t-173 393q-80 0 -179 -6l29 98q73 -6 141 -6q-1 17 -2 36.5t-1.5 30t-0.5 15.5
q0 20 4 90q-86 0 -172 -6l29 98q141 -6 152 -6q35 252 173.5 385t364.5 133q178 0 383 -111q-43 -87 -55 -198h-23q-111 225 -299 225q-145 0 -232 -110.5t-106 -323.5h246q84 0 330 6l-29 -98q-258 6 -487 6h-66q-1 -17 -2 -40t-1.5 -35t-0.5 -19q0 -39 2 -78h258
q41 0 250 6z" />
    <glyph glyph-name="yen" unicode="&#xa5;" horiz-adv-x="1124" 
d="M449 0q18 140 18 348v68q-209 0 -389 -13v99q123 -6 280 -6h109v155h-109q-196 0 -280 -6v98q78 -6 342 -6q-186 321 -369 596q52 -8 117 -8q64 0 119 8q47 -117 143 -282l164 -285q176 285 295 567q36 -8 80 -8t80 8q-104 -154 -220 -350l-147 -246q258 0 362 6v-98
q-104 6 -393 6v-155q57 -2 162 -2q135 0 231 8v-99q-190 13 -393 13v-76q0 -149 11 -340q-62 10 -109 10q-46 0 -104 -10z" />
    <glyph glyph-name="brokenbar" unicode="&#xa6;" 
d="M567 1432v-758h-108v758h108zM567 408v-758h-108v758h108z" />
    <glyph glyph-name="section" unicode="&#xa7;" horiz-adv-x="1011" 
d="M115 -178q38 105 57 233h18q31 -113 106.5 -173t186.5 -60q104 0 168 60.5t64 156.5q0 50 -16.5 86.5t-66.5 71t-86.5 52.5t-131.5 60q-19 9 -29 13q-62 27 -102.5 48.5t-79 49.5t-60 57.5t-34.5 69.5t-13 90q0 162 160 276q-74 92 -74 197q0 144 102.5 233t272.5 89
q161 0 309 -91q-55 -90 -84 -180h-20q-23 90 -88.5 140.5t-155.5 50.5q-87 0 -144 -53.5t-57 -133.5q0 -46 19.5 -81.5t65 -66t96.5 -55t138 -61.5q48 -20 73 -31q115 -51 168 -113.5t53 -154.5q0 -80 -41 -153t-117 -127q92 -89 92 -224q0 -162 -113.5 -264t-301.5 -102
q-192 0 -334 90zM297 881q-90 -90 -90 -164q0 -124 207 -213l161 -70q107 -47 144 -78q92 68 92 154q0 75 -51.5 118t-184.5 103l-157 72q-81 38 -121 78z" />
    <glyph glyph-name="dieresis" unicode="&#xa8;" 
d="M217 1280q0 44 34.5 78.5t80.5 34.5q45 0 77.5 -33.5t32.5 -79.5q0 -50 -30.5 -82.5t-79.5 -32.5q-50 0 -82.5 32.5t-32.5 82.5zM582 1280q0 45 33.5 79t78.5 34q46 0 79.5 -33.5t33.5 -79.5q0 -50 -32 -82.5t-81 -32.5q-47 0 -79.5 33t-32.5 82z" />
    <glyph glyph-name="copyright" unicode="&#xa9;" horiz-adv-x="1705" 
d="M852 1456q149 0 283.5 -55.5t238.5 -159.5q102 -102 156.5 -236t54.5 -282q0 -306 -211 -514q-107 -106 -242 -162.5t-280 -56.5t-277.5 55.5t-238.5 161.5q-104 104 -159.5 237t-55.5 279t56.5 280t162.5 242q208 211 512 211zM1505 723q0 132 -48.5 251t-139.5 210
q-192 192 -465 192q-272 0 -457 -188q-95 -96 -144.5 -215.5t-49.5 -249.5q0 -129 49 -247t143 -212t212 -143t247 -49q130 0 250.5 49.5t216.5 144.5q186 183 186 457zM1073 915q-19 80 -75.5 124t-141.5 44q-121 0 -189.5 -94.5t-68.5 -267.5q0 -167 69 -260.5t189 -93.5
q89 0 150.5 50t78.5 138h115q-11 -125 -108.5 -205t-241.5 -80q-175 0 -278 121t-103 336q0 205 108.5 327t282.5 122q135 0 226.5 -72t103.5 -189h-117z" />
    <glyph glyph-name="ordfeminine" unicode="&#xaa;" horiz-adv-x="729" 
d="M496 1075l-93 -16q-106 -19 -156 -56t-50 -98q0 -58 34 -92.5t91 -34.5q77 0 125.5 45t48.5 121v131zM496 801q-96 -107 -234 -107q-96 0 -154.5 52.5t-58.5 136.5q0 51 14 85.5t47.5 58.5t76 39t112.5 30l141 28q33 6 46.5 22.5t13.5 51.5q0 75 -46.5 118.5t-127.5 43.5
q-65 0 -113.5 -30.5t-71.5 -84.5l-32 12l8 78q97 84 248 84q142 0 201 -53t59 -174v-340q0 -48 12 -65t55 -17q1 0 6.5 0.5t15.5 1t21 0.5v-31q-78 -34 -139 -34q-46 0 -70 22.5t-30 71.5z" />
    <glyph glyph-name="guillemotleft" unicode="&#xab;" horiz-adv-x="909" 
d="M463 918l-232 -426l232 -429l-60 -57l-329 486l329 483zM823 918l-231 -426l231 -429l-59 -57l-330 486l330 483z" />
    <glyph glyph-name="logicalnot" unicode="&#xac;" horiz-adv-x="1705" 
d="M1452 858v-502h-96v402h-1102v100h1198z" />
    <glyph glyph-name="registered" unicode="&#xae;" horiz-adv-x="1705" 
d="M852 1456q310 0 522 -215q102 -102 156.5 -236t54.5 -282q0 -306 -211 -514q-107 -106 -242 -162.5t-280 -56.5q-146 0 -279 55.5t-237 161.5q-104 104 -159.5 237t-55.5 279q0 145 56.5 280t162.5 242q208 211 512 211zM1505 721q0 134 -48 253.5t-138 209.5
q-192 192 -467 192q-267 0 -455 -188q-95 -97 -145.5 -216.5t-50.5 -248.5t49 -247t143 -212t212 -143t247 -49q130 0 250.5 49.5t216.5 144.5q186 180 186 455zM874 1157q177 0 263 -56.5t86 -176.5q0 -89 -54 -149.5t-145 -72.5l188 -389h-145l-178 371h-197v-371h-127
v844h309zM850 1071h-158v-303h158q129 0 185.5 31.5t56.5 115.5t-58 120t-184 36z" />
    <glyph glyph-name="macron" unicode="&#xaf;" 
d="M242 1210v140h540v-140h-540z" />
    <glyph glyph-name="degree" unicode="&#xb0;" horiz-adv-x="673" 
d="M338 1452q115 0 195.5 -81t80.5 -197q0 -115 -81 -197t-197 -82q-117 0 -197 81t-80 198t81.5 197.5t197.5 80.5zM545 1174q0 86 -60.5 147t-146.5 61t-147.5 -61t-61.5 -147q0 -87 61 -147t148 -60t147 60t60 147z" />
    <glyph glyph-name="plusminus" unicode="&#xb1;" horiz-adv-x="1705" 
d="M903 1169v-348h549v-98h-549v-348h-98v348h-551v98h551v348h98zM1452 150v-99h-1198v99h1198z" />
    <glyph glyph-name="twosuperior" unicode="&#xb2;" horiz-adv-x="741" 
d="M23 567q215 178 317 308.5t102 240.5q0 86 -41.5 134t-115.5 48q-70 0 -113.5 -41t-46.5 -114l-8 -4q-39 73 -70 114q113 101 260 101q128 0 202.5 -60t74.5 -159q0 -46 -17.5 -89.5t-59.5 -92t-82 -87t-114 -102.5l-143 -125h270q80 0 178 16q-6 -30 -6 -61q0 -32 6 -62
q-126 9 -364 9q-155 0 -229 -9v35z" />
    <glyph glyph-name="threesuperior" unicode="&#xb3;" horiz-adv-x="741" 
d="M238 924q2 10 2 34q0 25 -2 37q23 -4 65 -4q78 0 122 42.5t44 117.5q0 154 -154 154q-59 0 -100 -35t-53 -96l-8 -5q-9 22 -56 99q107 84 246 84q116 0 184 -51t68 -134q0 -146 -217 -202q128 -6 194 -56.5t66 -140.5q0 -113 -91.5 -183.5t-244.5 -70.5q-132 0 -229 47
q18 69 24 141h15q25 -73 70.5 -107t117.5 -34q91 0 145 52.5t54 144.5q0 86 -49.5 131t-143.5 45q-24 0 -69 -10z" />
    <glyph glyph-name="acute" unicode="&#xb4;" 
d="M336 1116l276 301q56 62 107 62q31 0 53.5 -24t22.5 -56q0 -29 -19.5 -50.5t-64.5 -50.5l-301 -182h-74z" />
    <glyph glyph-name="mu" unicode="&#xb5;" horiz-adv-x="1110" 
d="M344 1065l-125 -592q-16 -75 -16 -139q0 -117 58 -180.5t167 -63.5q124 0 214 106.5t134 311.5l121 557h139l-164 -770q-22 -99 -22 -133q0 -66 68 -66q16 0 36 2l-20 -110q-43 -11 -86 -11q-137 0 -137 146v14q-41 -77 -119.5 -119.5t-179.5 -42.5q-92 0 -161.5 40.5
t-107.5 115.5l-114 -557h-140l316 1491h139z" />
    <glyph glyph-name="paragraph" unicode="&#xb6;" 
d="M940 1409h-127v-1409h-82v1409h-188v-1409h-82v782q-175 7 -276 102t-101 246q0 156 106.5 252.5t286.5 96.5h463v-70z" />
    <glyph glyph-name="periodcentered" unicode="&#xb7;" horiz-adv-x="561" 
d="M150 678q0 54 38 91.5t93 37.5t93 -37t38 -92q0 -54 -38 -92.5t-93 -38.5q-54 0 -92.5 38t-38.5 93z" />
    <glyph glyph-name="cedilla" unicode="&#xb8;" 
d="M238 -391l28 74q110 -52 223 -52q136 0 136 90q0 42 -30 65.5t-85 23.5q-19 0 -59 -7v197h63v-115q20 4 61 4q89 0 138 -44t49 -121q0 -84 -59 -131.5t-168 -47.5q-147 0 -297 64z" />
    <glyph glyph-name="onesuperior" unicode="&#xb9;" horiz-adv-x="741" 
d="M307 532q25 212 25 564q0 66 -6 151l-68 -35q-69 -32 -127 -73q-23 41 -63 63q194 56 385 170l14 -2q-16 -291 -16 -614q0 -142 4 -224q-37 9 -76 9q-35 0 -72 -9z" />
    <glyph glyph-name="ordmasculine" unicode="&#xba;" horiz-adv-x="847" 
d="M803 1055q0 -164 -103.5 -261.5t-275.5 -97.5q-177 0 -277 95t-100 264q0 164 102.5 263t274.5 99q175 0 277 -97.5t102 -264.5zM643 1055q0 149 -57.5 229t-159.5 80q-104 0 -162.5 -80.5t-58.5 -228.5q0 -146 59 -226.5t162 -80.5q101 0 159 80.5t58 226.5z" />
    <glyph glyph-name="guillemotright" unicode="&#xbb;" horiz-adv-x="909" 
d="M63 55l234 428l-234 428l60 56l332 -484l-332 -483zM424 55l233 428l-233 428l59 56l330 -484l-330 -483z" />
    <glyph glyph-name="onequarter" unicode="&#xbc;" horiz-adv-x="1757" 
d="M295 586q20 185 20 526q0 88 -4 139l-65 -30q-77 -38 -121 -68q-21 34 -59 57q189 55 366 160l14 -4q-14 -238 -14 -573q0 -131 2 -207q-33 8 -72 8q-36 0 -67 -8zM367 -190l919 1712h105l-920 -1712h-104zM1466 0q13 70 13 133v80q-126 4 -195 4q-65 0 -197 -4v33
q308 377 414 514q18 -2 51 -2t47 2q-8 -96 -8 -166v-305h29q30 0 84 4q-6 -21 -6 -43t6 -43q-58 6 -117 6v-96q0 -7 4 -117q-30 6 -61 6q-30 0 -64 -6zM1479 289v354q-147 -166 -291 -354h291z" />
    <glyph glyph-name="onehalf" unicode="&#xbd;" horiz-adv-x="1757" 
d="M295 586q20 185 20 526q0 88 -4 139l-65 -30q-77 -38 -121 -68q-21 34 -59 57q189 55 366 160l14 -4q-14 -238 -14 -573q0 -131 2 -207q-33 8 -72 8q-36 0 -67 -8zM367 -190l919 1712h105l-920 -1712h-104zM1073 33q205 167 303.5 288.5t98.5 223.5q0 81 -41 125.5
t-111 44.5q-68 0 -109.5 -39t-42.5 -107l-10 -2q-32 63 -65 107q109 92 250 92q122 0 192 -56t70 -149q0 -80 -60 -153.5t-198 -190.5l-140 -119h258q73 0 170 17q-4 -18 -4 -58q0 -37 4 -57q-107 8 -348 8q-136 0 -217 -8v33z" />
    <glyph glyph-name="threequarters" unicode="&#xbe;" horiz-adv-x="1759" 
d="M225 952q4 8 4 31t-4 35q23 -4 64 -4q75 0 117.5 39.5t42.5 109.5t-38 107t-110 37q-56 0 -95.5 -32.5t-49.5 -90.5l-11 -4q-10 25 -53 92q100 78 238 78q109 0 174 -47t65 -123q0 -141 -207 -191q246 -12 246 -184q0 -105 -86.5 -170.5t-232.5 -65.5q-130 0 -217 43
q9 42 22 133h12q25 -69 68.5 -101t112.5 -32q88 0 139 49t51 134q0 81 -47 123.5t-135 42.5q-9 0 -70 -9zM367 -190l919 1712h105l-920 -1712h-104zM1466 0q13 70 13 133v80q-126 4 -195 4q-65 0 -197 -4v33q308 377 414 514q18 -2 51 -2t47 2q-8 -96 -8 -166v-305h29
q30 0 84 4q-6 -21 -6 -43t6 -43q-58 6 -117 6v-96q0 -7 4 -117q-30 6 -61 6q-30 0 -64 -6zM1479 289v354q-147 -166 -291 -354h291z" />
    <glyph glyph-name="questiondown" unicode="&#xbf;" horiz-adv-x="903" 
d="M346 1012q52 10 82 10q113 0 178.5 -61t65.5 -166q0 -80 -41 -142.5t-129 -148.5l-86 -86q-55 -55 -79 -93.5t-24 -91.5q0 -79 52 -129.5t135 -50.5q73 0 119.5 39t60.5 111h14q17 -88 37 -152q-124 -78 -268 -78q-147 0 -234.5 82.5t-87.5 216.5q0 53 12 95.5t40 81
t54.5 65.5t74.5 70l81 71q105 91 105 187q0 110 -113 110q-34 0 -67 -8q8 28 18 68zM332 1294q0 54 38 91.5t93 37.5t93 -37t38 -92q0 -54 -38 -92.5t-93 -38.5q-54 0 -92.5 38t-38.5 93z" />
    <glyph glyph-name="Agrave" unicode="&#xc0;" horiz-adv-x="1236" 
d="M-27 0q308 689 609 1425q27 -6 49 -6q26 0 47 6q278 -730 579 -1425q-78 10 -135 10q-59 0 -127 -10q-89 297 -182 530q-130 7 -231 7t-258 -7l-80 -219q-49 -137 -92 -311q-48 10 -89 10q-38 0 -90 -10zM369 637q111 -6 211 -6t188 6l-197 508zM795 1536h-74l-301 182
q-45 29 -64.5 50.5t-19.5 50.5q0 32 22.5 55.5t53.5 23.5q51 0 106 -61z" />
    <glyph glyph-name="Aacute" unicode="&#xc1;" horiz-adv-x="1236" 
d="M-27 0q308 689 609 1425q27 -6 49 -6q26 0 47 6q278 -730 579 -1425q-78 10 -135 10q-59 0 -127 -10q-89 297 -182 530q-130 7 -231 7t-258 -7l-80 -219q-49 -137 -92 -311q-48 10 -89 10q-38 0 -90 -10zM369 637q111 -6 211 -6t188 6l-197 508zM442 1536l277 301
q55 61 106 61q31 0 53.5 -23.5t22.5 -55.5q0 -29 -19.5 -50.5t-64.5 -50.5l-301 -182h-74z" />
    <glyph glyph-name="Acircumflex" unicode="&#xc2;" horiz-adv-x="1236" 
d="M-27 0q308 689 609 1425q27 -6 49 -6q26 0 47 6q278 -730 579 -1425q-78 10 -135 10q-59 0 -127 -10q-89 297 -182 530q-130 7 -231 7t-258 -7l-80 -219q-49 -137 -92 -311q-48 10 -89 10q-38 0 -90 -10zM369 637q111 -6 211 -6t188 6l-197 508zM324 1536l227 348h133
l229 -348h-73l-222 195l-221 -195h-73z" />
    <glyph glyph-name="Atilde" unicode="&#xc3;" horiz-adv-x="1236" 
d="M-27 0q308 689 609 1425q27 -6 49 -6q26 0 47 6q278 -730 579 -1425q-78 10 -135 10q-59 0 -127 -10q-89 297 -182 530q-130 7 -231 7t-258 -7l-80 -219q-49 -137 -92 -311q-48 10 -89 10q-38 0 -90 -10zM369 637q111 -6 211 -6t188 6l-197 508zM901 1853
q-44 -229 -194 -229q-25 0 -52 6l-106 27q-45 10 -53 10q-43 0 -66.5 -20.5t-36.5 -69.5h-57q23 117 70.5 173t123.5 56q35 0 66 -8l109 -26q28 -7 51 -7q67 0 88 88h57z" />
    <glyph glyph-name="Adieresis" unicode="&#xc4;" horiz-adv-x="1236" 
d="M-27 0q308 689 609 1425q27 -6 49 -6q26 0 47 6q278 -730 579 -1425q-78 10 -135 10q-59 0 -127 -10q-89 297 -182 530q-130 7 -231 7t-258 -7l-80 -219q-49 -137 -92 -311q-48 10 -89 10q-38 0 -90 -10zM369 637q111 -6 211 -6t188 6l-197 508zM324 1700q0 44 34 78
t80 34t78.5 -33t32.5 -79q0 -50 -31 -82.5t-80 -32.5t-81.5 32.5t-32.5 82.5zM688 1700q0 44 34 78t79 34q46 0 79 -33t33 -79q0 -50 -31.5 -82.5t-80.5 -32.5q-48 0 -80.5 33t-32.5 82z" />
    <glyph glyph-name="Aring" unicode="&#xc5;" horiz-adv-x="1236" 
d="M-27 0q308 689 609 1425q27 -6 49 -6q26 0 47 6q278 -730 579 -1425q-78 10 -135 10q-59 0 -127 -10q-89 297 -182 530q-130 7 -231 7t-258 -7l-80 -219q-49 -137 -92 -311q-48 10 -89 10q-38 0 -90 -10zM369 637q111 -6 211 -6t188 6l-197 508zM625 1481q-106 0 -174 66
t-68 169q0 109 76.5 182.5t187.5 73.5q102 0 169 -66.5t67 -168.5q0 -109 -74.5 -182.5t-183.5 -73.5zM637 1911q-70 0 -112 -54t-42 -149q0 -77 39.5 -120.5t106.5 -43.5q71 0 111 51.5t40 143.5q0 81 -38.5 126.5t-104.5 45.5z" />
    <glyph glyph-name="AE" unicode="&#xc6;" horiz-adv-x="1759" 
d="M1114 692v-217q0 -142 8 -366h195q174 0 338 34q-6 -37 -6 -73t6 -70q-173 6 -363 6t-395 -6q21 146 21 350v178q-55 2 -160 2q-153 0 -326 -10l-119 -213q-56 -100 -141 -307q-62 10 -115 10t-94 -8q580 865 899 1397q184 -6 379 -6q199 0 408 6q-7 -40 -7 -70
q0 -27 7 -74q-169 35 -338 35h-195q-2 -152 -2 -286v-211h215q129 0 285 18q-4 -36 -4 -61q0 -20 4 -74q-213 16 -291 16h-209zM918 618v674l-420 -665q95 -9 213 -9h207z" />
    <glyph glyph-name="Ccedilla" unicode="&#xc7;" horiz-adv-x="1370" 
d="M1268 1106h-23q-134 225 -414 225q-242 0 -380 -164t-138 -458q0 -292 144.5 -463.5t382.5 -171.5q245 0 442 209l23 -11q-18 -86 -21 -170q-235 -131 -487 -131q-336 0 -527.5 194.5t-191.5 534.5q0 335 201.5 528t551.5 193q242 0 492 -110q-42 -82 -55 -205zM510 -391
l29 74q110 -52 223 -52q135 0 135 90q0 42 -30 65.5t-85 23.5q-19 0 -59 -7v197h63v-115q20 4 62 4q89 0 137.5 -44t48.5 -121q0 -84 -59 -131.5t-168 -47.5q-147 0 -297 64z" />
    <glyph glyph-name="Egrave" unicode="&#xc8;" horiz-adv-x="1028" 
d="M164 0q26 299 26 698q0 432 -26 701q203 -6 389 -6q189 0 362 6q-6 -34 -6 -70q0 -33 6 -74q-143 35 -337 35h-187q-2 -152 -2 -286v-211h207q129 0 285 18q-4 -36 -4 -61q0 -20 4 -74q-213 16 -291 16h-201v-217q0 -145 8 -366h187q174 0 338 34q-7 -44 -7 -73
q0 -30 7 -70q-172 6 -363 6q-189 0 -395 -6zM717 1536h-74l-301 182q-45 29 -64.5 50.5t-19.5 50.5q0 32 22.5 55.5t53.5 23.5q51 0 106 -61z" />
    <glyph glyph-name="Eacute" unicode="&#xc9;" horiz-adv-x="1028" 
d="M164 0q26 299 26 698q0 432 -26 701q203 -6 389 -6q189 0 362 6q-6 -34 -6 -70q0 -33 6 -74q-143 35 -337 35h-187q-2 -152 -2 -286v-211h207q129 0 285 18q-4 -36 -4 -61q0 -20 4 -74q-213 16 -291 16h-201v-217q0 -145 8 -366h187q174 0 338 34q-7 -44 -7 -73
q0 -30 7 -70q-172 6 -363 6q-189 0 -395 -6zM365 1536l276 301q55 61 107 61q31 0 53 -23.5t22 -55.5q0 -29 -19.5 -50.5t-64.5 -50.5l-301 -182h-73z" />
    <glyph glyph-name="Ecircumflex" unicode="&#xca;" horiz-adv-x="1028" 
d="M164 0q26 299 26 698q0 432 -26 701q203 -6 389 -6q189 0 362 6q-6 -34 -6 -70q0 -33 6 -74q-143 35 -337 35h-187q-2 -152 -2 -286v-211h207q129 0 285 18q-4 -36 -4 -61q0 -20 4 -74q-213 16 -291 16h-201v-217q0 -145 8 -366h187q174 0 338 34q-7 -44 -7 -73
q0 -30 7 -70q-172 6 -363 6q-189 0 -395 -6zM246 1536l227 348h133l230 -348h-74l-221 195l-222 -195h-73z" />
    <glyph glyph-name="Edieresis" unicode="&#xcb;" horiz-adv-x="1028" 
d="M164 0q26 299 26 698q0 432 -26 701q203 -6 389 -6q189 0 362 6q-6 -34 -6 -70q0 -33 6 -74q-143 35 -337 35h-187q-2 -152 -2 -286v-211h207q129 0 285 18q-4 -36 -4 -61q0 -20 4 -74q-213 16 -291 16h-201v-217q0 -145 8 -366h187q174 0 338 34q-7 -44 -7 -73
q0 -30 7 -70q-172 6 -363 6q-189 0 -395 -6zM246 1700q0 44 34 78t80 34t78.5 -33t32.5 -79q0 -50 -31 -82.5t-80 -32.5t-81.5 32.5t-32.5 82.5zM610 1700q0 44 34 78t79 34q46 0 79.5 -33t33.5 -79q0 -50 -32 -82.5t-81 -32.5q-48 0 -80.5 33t-32.5 82z" />
    <glyph glyph-name="Igrave" unicode="&#xcc;" horiz-adv-x="577" 
d="M166 0q27 310 27 698q0 422 -27 701q68 -10 123 -10t123 10q-25 -259 -25 -701q0 -410 25 -698q-51 10 -123 10t-123 -10zM465 1536h-74l-301 182q-45 29 -64.5 50.5t-19.5 50.5q0 32 22.5 55.5t53.5 23.5q51 0 106 -61z" />
    <glyph glyph-name="Iacute" unicode="&#xcd;" horiz-adv-x="577" 
d="M166 0q27 310 27 698q0 422 -27 701q68 -10 123 -10t123 10q-25 -259 -25 -701q0 -410 25 -698q-51 10 -123 10t-123 -10zM113 1536l276 301q55 61 107 61q31 0 53 -23.5t22 -55.5q0 -29 -19.5 -50.5t-64.5 -50.5l-301 -182h-73z" />
    <glyph glyph-name="Icircumflex" unicode="&#xce;" horiz-adv-x="577" 
d="M166 0q27 310 27 698q0 422 -27 701q68 -10 123 -10t123 10q-25 -259 -25 -701q0 -410 25 -698q-51 10 -123 10t-123 -10zM-6 1536l227 348h133l230 -348h-74l-221 195l-221 -195h-74z" />
    <glyph glyph-name="Idieresis" unicode="&#xcf;" horiz-adv-x="577" 
d="M166 0q27 310 27 698q0 422 -27 701q68 -10 123 -10t123 10q-25 -259 -25 -701q0 -410 25 -698q-51 10 -123 10t-123 -10zM-6 1700q0 44 34.5 78t80.5 34t78 -33t32 -79q0 -50 -30.5 -82.5t-79.5 -32.5t-82 32.5t-33 82.5zM358 1700q0 44 34 78t79 34q46 0 79.5 -33
t33.5 -79q0 -50 -32 -82.5t-81 -32.5q-48 0 -80.5 33t-32.5 82z" />
    <glyph glyph-name="Eth" unicode="&#xd0;" horiz-adv-x="1574" 
d="M174 0q25 320 25 639v74q-23 2 -68 2q-74 0 -131 -8v102q68 -10 139 -10q40 0 60 2v59q0 280 -25 539q88 -6 162 -6q66 0 211.5 7t224.5 7q357 0 541 -174t184 -508q0 -342 -211.5 -535.5t-593.5 -193.5q-58 0 -177.5 6t-182.5 6q-87 0 -158 -8zM403 111q139 -17 220 -17
q647 0 647 625q0 295 -156 445.5t-463 150.5q-98 0 -248 -12q0 -62 -8 -502q45 -2 129 -2q155 0 295 10v-102q-135 6 -307 6h-119q9 -557 10 -602z" />
    <glyph glyph-name="Ntilde" unicode="&#xd1;" horiz-adv-x="1517" 
d="M147 -2q35 294 35 1116q0 138 -6 311h74q474 -552 981 -1077v559q0 195 -25 492q44 -6 84 -6q42 0 80 6q-35 -240 -35 -1114q0 -93 6 -310h-67q-128 171 -389 449l-594 633v-557q0 -282 26 -502q-48 10 -86 10q-36 0 -84 -10zM1042 1853q-44 -229 -194 -229q-24 0 -51 6
l-107 27q-45 10 -53 10q-43 0 -65.5 -20t-36.5 -70h-58q23 117 71 173t124 56q34 0 65 -8l109 -26q28 -7 51 -7q67 0 88 88h57z" />
    <glyph glyph-name="Ograve" unicode="&#xd2;" horiz-adv-x="1681" 
d="M842 -27q-356 0 -560 195t-204 530q0 336 203.5 531.5t558.5 195.5q363 0 562.5 -191.5t199.5 -535.5q0 -342 -200.5 -533.5t-559.5 -191.5zM840 1335q-255 0 -394 -164t-139 -462q0 -314 137.5 -480t395.5 -166q257 0 394.5 164t137.5 471t-137.5 472t-394.5 165z
M1018 1536h-74l-301 182q-45 29 -64.5 50.5t-19.5 50.5q0 32 22.5 55.5t53.5 23.5q51 0 106 -61z" />
    <glyph glyph-name="Oacute" unicode="&#xd3;" horiz-adv-x="1681" 
d="M842 -27q-356 0 -560 195t-204 530q0 336 203.5 531.5t558.5 195.5q363 0 562.5 -191.5t199.5 -535.5q0 -342 -200.5 -533.5t-559.5 -191.5zM840 1335q-255 0 -394 -164t-139 -462q0 -314 137.5 -480t395.5 -166q257 0 394.5 164t137.5 471t-137.5 472t-394.5 165z
M666 1536l276 301q55 61 107 61q31 0 53 -23.5t22 -55.5q0 -29 -19.5 -50.5t-64.5 -50.5l-301 -182h-73z" />
    <glyph glyph-name="Ocircumflex" unicode="&#xd4;" horiz-adv-x="1681" 
d="M842 -27q-356 0 -560 195t-204 530q0 336 203.5 531.5t558.5 195.5q363 0 562.5 -191.5t199.5 -535.5q0 -342 -200.5 -533.5t-559.5 -191.5zM840 1335q-255 0 -394 -164t-139 -462q0 -314 137.5 -480t395.5 -166q257 0 394.5 164t137.5 471t-137.5 472t-394.5 165z
M547 1536l227 348h133l230 -348h-74l-221 195l-221 -195h-74z" />
    <glyph glyph-name="Otilde" unicode="&#xd5;" horiz-adv-x="1681" 
d="M842 -27q-356 0 -560 195t-204 530q0 336 203.5 531.5t558.5 195.5q363 0 562.5 -191.5t199.5 -535.5q0 -342 -200.5 -533.5t-559.5 -191.5zM840 1335q-255 0 -394 -164t-139 -462q0 -314 137.5 -480t395.5 -166q257 0 394.5 164t137.5 471t-137.5 472t-394.5 165z
M1124 1853q-44 -229 -194 -229q-24 0 -51 6l-107 27q-45 10 -53 10q-43 0 -66.5 -20.5t-36.5 -69.5h-57q23 117 71 173t124 56q34 0 65 -8l109 -26q28 -7 51 -7q67 0 88 88h57z" />
    <glyph glyph-name="Odieresis" unicode="&#xd6;" horiz-adv-x="1681" 
d="M842 -27q-356 0 -560 195t-204 530q0 336 203.5 531.5t558.5 195.5q363 0 562.5 -191.5t199.5 -535.5q0 -342 -200.5 -533.5t-559.5 -191.5zM840 1335q-255 0 -394 -164t-139 -462q0 -314 137.5 -480t395.5 -166q257 0 394.5 164t137.5 471t-137.5 472t-394.5 165z
M547 1700q0 44 34.5 78t80.5 34t78 -33t32 -79q0 -50 -30.5 -82.5t-79.5 -32.5q-50 0 -82.5 32.5t-32.5 82.5zM911 1700q0 44 33.5 78t79.5 34t79.5 -33t33.5 -79q0 -50 -32 -82.5t-81 -32.5q-48 0 -80.5 33t-32.5 82z" />
    <glyph glyph-name="multiply" unicode="&#xd7;" horiz-adv-x="1705" 
d="M856 680l481 481l70 -69l-481 -482l481 -481l-70 -70l-481 482l-481 -482l-70 70l481 481l-481 482l70 69z" />
    <glyph glyph-name="Oslash" unicode="&#xd8;" horiz-adv-x="1681" 
d="M461 213q141 -150 379 -150q256 0 394 164t138 471q0 258 -115 441q-361 -404 -796 -926zM84 -55l203 217q-209 212 -209 536q0 340 206 533.5t576 193.5q247 0 432 -110l166 205l84 -68l-176 -190q111 -86 173.5 -233t62.5 -331q0 -336 -203.5 -530.5t-558.5 -194.5
q-289 0 -478 131l-194 -235zM399 293q395 437 793 921q-124 121 -354 121q-254 0 -391.5 -165t-137.5 -472q0 -229 90 -405z" />
    <glyph glyph-name="Ugrave" unicode="&#xd9;" horiz-adv-x="1521" 
d="M152 1399q55 -8 122 -8q66 0 121 8q-22 -248 -22 -355v-360q0 -287 35 -375q46 -117 133 -170t233 -53q215 0 338 117q71 68 90 164t19 274v344q0 244 -23 414q41 -8 90 -8q51 0 90 8q-26 -175 -26 -498v-350q0 -578 -613 -578q-359 0 -489 205q-49 75 -62.5 162.5
t-13.5 228.5v478q0 194 -22 352zM973 1536h-74l-301 182q-45 29 -64.5 50.5t-19.5 50.5q0 32 22.5 55.5t53.5 23.5q51 0 106 -61z" />
    <glyph glyph-name="Uacute" unicode="&#xda;" horiz-adv-x="1521" 
d="M152 1399q55 -8 122 -8q66 0 121 8q-22 -248 -22 -355v-360q0 -287 35 -375q46 -117 133 -170t233 -53q215 0 338 117q71 68 90 164t19 274v344q0 244 -23 414q41 -8 90 -8q51 0 90 8q-26 -175 -26 -498v-350q0 -578 -613 -578q-359 0 -489 205q-49 75 -62.5 162.5
t-13.5 228.5v478q0 194 -22 352zM621 1536l276 301q55 61 107 61q31 0 53 -23.5t22 -55.5q0 -29 -19.5 -50.5t-64.5 -50.5l-301 -182h-73z" />
    <glyph glyph-name="Ucircumflex" unicode="&#xdb;" horiz-adv-x="1521" 
d="M152 1399q55 -8 122 -8q66 0 121 8q-22 -248 -22 -355v-360q0 -287 35 -375q46 -117 133 -170t233 -53q215 0 338 117q71 68 90 164t19 274v344q0 244 -23 414q41 -8 90 -8q51 0 90 8q-26 -175 -26 -498v-350q0 -578 -613 -578q-359 0 -489 205q-49 75 -62.5 162.5
t-13.5 228.5v478q0 194 -22 352zM502 1536l227 348h133l230 -348h-74l-221 195l-222 -195h-73z" />
    <glyph glyph-name="Udieresis" unicode="&#xdc;" horiz-adv-x="1521" 
d="M152 1399q55 -8 122 -8q66 0 121 8q-22 -248 -22 -355v-360q0 -287 35 -375q46 -117 133 -170t233 -53q215 0 338 117q71 68 90 164t19 274v344q0 244 -23 414q41 -8 90 -8q51 0 90 8q-26 -175 -26 -498v-350q0 -578 -613 -578q-359 0 -489 205q-49 75 -62.5 162.5
t-13.5 228.5v478q0 194 -22 352zM502 1700q0 44 34 78t80 34t78.5 -33t32.5 -79q0 -50 -31 -82.5t-80 -32.5t-81.5 32.5t-32.5 82.5zM866 1700q0 44 34 78t79 34q46 0 79.5 -33t33.5 -79q0 -50 -32 -82.5t-81 -32.5q-48 0 -80.5 33t-32.5 82z" />
    <glyph glyph-name="Yacute" unicode="&#xdd;" horiz-adv-x="1062" 
d="M428 0q21 170 21 408v172q-234 431 -492 819q63 -8 137 -8t129 8q61 -161 191 -385l174 -299q194 320 352 684q39 -8 88 -8q51 0 90 8q-147 -231 -282 -459l-189 -317v-263q0 -182 12 -360q-65 10 -118 10q-51 0 -113 -10zM356 1536l277 301q55 61 106 61
q31 0 53.5 -23.5t22.5 -55.5q0 -29 -19.5 -50.5t-64.5 -50.5l-301 -182h-74z" />
    <glyph glyph-name="Thorn" unicode="&#xde;" horiz-adv-x="1103" 
d="M166 0q24 408 24 834q0 334 -20 565q68 -10 119 -10q52 0 117 10q-11 -105 -11 -205v-51q157 10 234 10q222 0 338 -93.5t116 -268.5q0 -188 -145.5 -299t-402.5 -111q-34 0 -152 4q5 -257 10 -385q-46 10 -112 10t-115 -10zM383 465q23 -2 68 -2q413 0 413 319
q0 134 -85.5 210.5t-243.5 76.5q-16 0 -142 -8q-10 -164 -10 -279v-317z" />
    <glyph glyph-name="germandbls" unicode="&#xdf;" horiz-adv-x="1146" 
d="M143 0q17 226 17 645v385q0 122 20 206.5t84 160.5q120 139 328 139q145 0 233 -73t88 -191q0 -108 -92 -203l-98 -100q-45 -45 -45 -90q0 -31 22.5 -54t81.5 -65l156 -111q152 -109 152 -274q0 -175 -115 -287.5t-297 -112.5q-117 0 -213 45q28 106 39 173h20
q70 -119 201 -119q92 0 149.5 59t57.5 156q0 128 -150 233l-143 101q-62 44 -88.5 76.5t-26.5 82.5q0 43 22 78t62.5 74.5t55.5 60.5l53 74q61 81 61 193q0 98 -51 150t-149 52q-240 0 -240 -340q0 -2 1 -63t1 -121v-426q0 -285 8 -514q-55 10 -100 10q-43 0 -105 -10z" />
    <glyph glyph-name="agrave" unicode="&#xe0;" horiz-adv-x="970" 
d="M659 518l-122 -24q-141 -27 -208 -79.5t-67 -140.5q0 -83 45.5 -131.5t120.5 -48.5q102 0 166.5 63t64.5 173v188zM659 127q-129 -154 -311 -154q-127 0 -204.5 75t-77.5 194q0 74 18.5 124t63 84.5t101.5 55t150 41.5l187 41q43 9 61.5 32t18.5 72q0 108 -62 170
t-170 62q-87 0 -151 -42.5t-95 -119.5l-43 16l11 111q130 121 329 121q189 0 269 -77t80 -249v-485q0 -68 15.5 -92.5t72.5 -24.5q2 0 9.5 0.5t21 1t28.5 0.5v-43q-111 -51 -186 -51q-61 0 -94 33t-42 104zM662 1116h-74l-301 182q-45 29 -64.5 50.5t-19.5 50.5
q0 32 22.5 56t53.5 24q50 0 106 -62z" />
    <glyph glyph-name="aacute" unicode="&#xe1;" horiz-adv-x="970" 
d="M659 518l-122 -24q-141 -27 -208 -79.5t-67 -140.5q0 -83 45.5 -131.5t120.5 -48.5q102 0 166.5 63t64.5 173v188zM659 127q-129 -154 -311 -154q-127 0 -204.5 75t-77.5 194q0 74 18.5 124t63 84.5t101.5 55t150 41.5l187 41q43 9 61.5 32t18.5 72q0 108 -62 170
t-170 62q-87 0 -151 -42.5t-95 -119.5l-43 16l11 111q130 121 329 121q189 0 269 -77t80 -249v-485q0 -68 15.5 -92.5t72.5 -24.5q2 0 9.5 0.5t21 1t28.5 0.5v-43q-111 -51 -186 -51q-61 0 -94 33t-42 104zM309 1116l277 301q56 62 106 62q31 0 53.5 -24t22.5 -56
q0 -29 -19.5 -50.5t-64.5 -50.5l-301 -182h-74z" />
    <glyph glyph-name="acircumflex" unicode="&#xe2;" horiz-adv-x="970" 
d="M659 518l-122 -24q-141 -27 -208 -79.5t-67 -140.5q0 -83 45.5 -131.5t120.5 -48.5q102 0 166.5 63t64.5 173v188zM659 127q-129 -154 -311 -154q-127 0 -204.5 75t-77.5 194q0 74 18.5 124t63 84.5t101.5 55t150 41.5l187 41q43 9 61.5 32t18.5 72q0 108 -62 170
t-170 62q-87 0 -151 -42.5t-95 -119.5l-43 16l11 111q130 121 329 121q189 0 269 -77t80 -249v-485q0 -68 15.5 -92.5t72.5 -24.5q2 0 9.5 0.5t21 1t28.5 0.5v-43q-111 -51 -186 -51q-61 0 -94 33t-42 104zM190 1116l228 348h133l229 -348h-73l-222 195l-221 -195h-74z" />
    <glyph glyph-name="atilde" unicode="&#xe3;" horiz-adv-x="970" 
d="M659 518l-122 -24q-141 -27 -208 -79.5t-67 -140.5q0 -83 45.5 -131.5t120.5 -48.5q102 0 166.5 63t64.5 173v188zM659 127q-129 -154 -311 -154q-127 0 -204.5 75t-77.5 194q0 74 18.5 124t63 84.5t101.5 55t150 41.5l187 41q43 9 61.5 32t18.5 72q0 108 -62 170
t-170 62q-87 0 -151 -42.5t-95 -119.5l-43 16l11 111q130 121 329 121q189 0 269 -77t80 -249v-485q0 -68 15.5 -92.5t72.5 -24.5q2 0 9.5 0.5t21 1t28.5 0.5v-43q-111 -51 -186 -51q-61 0 -94 33t-42 104zM768 1434q-22 -113 -71.5 -171.5t-123.5 -58.5q-24 0 -51 6
l-106 27q-45 10 -54 10q-43 0 -65.5 -20t-36.5 -70h-57q23 117 70.5 173t123.5 56q35 0 66 -8l108 -26q24 -6 52 -6q67 0 88 88h57z" />
    <glyph glyph-name="adieresis" unicode="&#xe4;" horiz-adv-x="970" 
d="M659 518l-122 -24q-141 -27 -208 -79.5t-67 -140.5q0 -83 45.5 -131.5t120.5 -48.5q102 0 166.5 63t64.5 173v188zM659 127q-129 -154 -311 -154q-127 0 -204.5 75t-77.5 194q0 74 18.5 124t63 84.5t101.5 55t150 41.5l187 41q43 9 61.5 32t18.5 72q0 108 -62 170
t-170 62q-87 0 -151 -42.5t-95 -119.5l-43 16l11 111q130 121 329 121q189 0 269 -77t80 -249v-485q0 -68 15.5 -92.5t72.5 -24.5q2 0 9.5 0.5t21 1t28.5 0.5v-43q-111 -51 -186 -51q-61 0 -94 33t-42 104zM190 1280q0 44 34.5 78.5t80.5 34.5t78.5 -33.5t32.5 -79.5
q0 -50 -31 -82.5t-80 -32.5t-82 32.5t-33 82.5zM555 1280q0 45 34 79t79 34q46 0 79 -33.5t33 -79.5q0 -50 -31.5 -82.5t-80.5 -32.5q-48 0 -80.5 33t-32.5 82z" />
    <glyph glyph-name="aring" unicode="&#xe5;" horiz-adv-x="970" 
d="M659 127q-129 -154 -311 -154q-127 0 -204.5 75t-77.5 194q0 74 18.5 124t63 84.5t101.5 55t150 41.5l187 41q43 9 61.5 32t18.5 72q0 108 -62 170t-170 62q-87 0 -151 -42.5t-95 -119.5l-43 16l11 111q130 121 329 121q189 0 269 -77t80 -249v-485q0 -68 15.5 -92.5
t72.5 -24.5q2 0 9.5 0.5t21 1t28.5 0.5v-43q-111 -51 -186 -51q-61 0 -94 33t-42 104zM659 518l-122 -24q-141 -27 -208 -79.5t-67 -140.5q0 -83 45.5 -131.5t120.5 -48.5q102 0 166.5 63t64.5 173v188zM489 1073q-105 0 -173 67.5t-68 170.5q0 109 76.5 182.5t187.5 73.5
q102 0 169 -67t67 -169q0 -109 -75 -183.5t-184 -74.5zM502 1503q-70 0 -112 -52.5t-42 -147.5q0 -77 39.5 -121.5t106.5 -44.5q71 0 112 51t41 143q0 81 -39 126.5t-106 45.5z" />
    <glyph glyph-name="ae" unicode="&#xe6;" horiz-adv-x="1636" 
d="M731 201q-111 -228 -352 -228q-133 0 -214 76.5t-81 198.5q0 147 117 227q19 14 50 25.5t53 17t74 17t73 16.5l151 35q82 17 82 106q0 109 -61 170.5t-168 61.5q-178 0 -246 -158l-45 12l12 111q130 121 342 121q183 0 289 -133q129 129 334 129q202 0 312 -117.5
t110 -335.5q0 -37 -2 -55q-154 4 -418 4q-197 0 -281 -2v-21q0 -200 87.5 -309t246.5 -109q96 0 173.5 35t125.5 97l27 -7q-11 -47 -17 -118q-156 -95 -356 -95q-296 0 -418 228zM862 588q164 -4 248 -4q82 0 254 4q2 18 2 53q0 138 -62.5 215.5t-170.5 77.5
q-122 0 -189 -85t-82 -261zM682 514l-170 -31q-121 -22 -179.5 -75.5t-58.5 -145.5q0 -79 46.5 -126.5t123.5 -47.5q112 0 175 67.5t63 192.5v166z" />
    <glyph glyph-name="ccedilla" unicode="&#xe7;" horiz-adv-x="966" 
d="M891 184l18 -4l-16 -117q-122 -88 -332 -88q-228 0 -368 137t-140 361q0 251 144 393t399 142q189 0 328 -80q-28 -83 -43 -189h-25q-50 191 -248 191q-162 0 -253 -113t-91 -319t96.5 -320.5t264.5 -114.5q171 0 266 121zM274 -391l29 74q110 -52 223 -52q136 0 136 90
q0 42 -30 65.5t-85 23.5q-20 0 -60 -7v197h64v-115q20 4 61 4q89 0 138 -44t49 -121q0 -84 -59.5 -131.5t-168.5 -47.5q-147 0 -297 64z" />
    <glyph glyph-name="egrave" unicode="&#xe8;" horiz-adv-x="1019" 
d="M268 500v-19q0 -201 88.5 -310.5t247.5 -109.5q96 0 173.5 35t125.5 97l27 -7q-11 -47 -17 -118q-156 -95 -360 -95q-230 0 -360 133.5t-130 368.5q0 242 129.5 386.5t346.5 144.5q203 0 317.5 -118.5t114.5 -330.5q0 -41 -2 -61q-308 8 -441 8q-92 0 -260 -4zM274 584
h99q67 0 395 4q4 36 4 59q0 128 -65 203.5t-170 75.5q-116 0 -184.5 -88t-78.5 -254zM686 1116h-74l-301 182q-45 29 -64.5 50.5t-19.5 50.5q0 32 22.5 56t53.5 24q51 0 107 -62z" />
    <glyph glyph-name="eacute" unicode="&#xe9;" horiz-adv-x="1019" 
d="M268 500v-19q0 -201 88.5 -310.5t247.5 -109.5q96 0 173.5 35t125.5 97l27 -7q-11 -47 -17 -118q-156 -95 -360 -95q-230 0 -360 133.5t-130 368.5q0 242 129.5 386.5t346.5 144.5q203 0 317.5 -118.5t114.5 -330.5q0 -41 -2 -61q-308 8 -441 8q-92 0 -260 -4zM274 584
h99q67 0 395 4q4 36 4 59q0 128 -65 203.5t-170 75.5q-116 0 -184.5 -88t-78.5 -254zM334 1116l276 301q56 62 107 62q31 0 53.5 -24t22.5 -56q0 -29 -19.5 -50.5t-64.5 -50.5l-301 -182h-74z" />
    <glyph glyph-name="ecircumflex" unicode="&#xea;" horiz-adv-x="1019" 
d="M268 500v-19q0 -201 88.5 -310.5t247.5 -109.5q96 0 173.5 35t125.5 97l27 -7q-11 -47 -17 -118q-156 -95 -360 -95q-230 0 -360 133.5t-130 368.5q0 242 129.5 386.5t346.5 144.5q203 0 317.5 -118.5t114.5 -330.5q0 -41 -2 -61q-308 8 -441 8q-92 0 -260 -4zM274 584
h99q67 0 395 4q4 36 4 59q0 128 -65 203.5t-170 75.5q-116 0 -184.5 -88t-78.5 -254zM215 1116l227 348h133l230 -348h-74l-221 195l-221 -195h-74z" />
    <glyph glyph-name="edieresis" unicode="&#xeb;" horiz-adv-x="1019" 
d="M268 500v-19q0 -201 88.5 -310.5t247.5 -109.5q96 0 173.5 35t125.5 97l27 -7q-11 -47 -17 -118q-156 -95 -360 -95q-230 0 -360 133.5t-130 368.5q0 242 129.5 386.5t346.5 144.5q203 0 317.5 -118.5t114.5 -330.5q0 -41 -2 -61q-308 8 -441 8q-92 0 -260 -4zM274 584
h99q67 0 395 4q4 36 4 59q0 128 -65 203.5t-170 75.5q-116 0 -184.5 -88t-78.5 -254zM215 1280q0 44 34.5 78.5t80.5 34.5q45 0 77.5 -33.5t32.5 -79.5q0 -50 -30.5 -82.5t-79.5 -32.5q-50 0 -82.5 32.5t-32.5 82.5zM580 1280q0 45 33.5 79t78.5 34q46 0 79.5 -33.5
t33.5 -79.5q0 -50 -32 -82.5t-81 -32.5q-47 0 -79.5 33t-32.5 82z" />
    <glyph glyph-name="igrave" unicode="&#xec;" horiz-adv-x="512" 
d="M143 0q15 182 15 592q0 245 -15 389q47 -8 103 -8q57 0 104 8q-14 -125 -14 -363q0 -402 14 -618q-58 10 -104 10q-45 0 -103 -10zM432 1116h-74l-301 182q-45 29 -64.5 50.5t-19.5 50.5q0 32 22.5 56t53.5 24q51 0 107 -62z" />
    <glyph glyph-name="iacute" unicode="&#xed;" horiz-adv-x="512" 
d="M143 0q15 182 15 592q0 245 -15 389q47 -8 103 -8q57 0 104 8q-14 -125 -14 -363q0 -402 14 -618q-58 10 -104 10q-45 0 -103 -10zM80 1116l276 301q56 62 107 62q31 0 53.5 -24t22.5 -56q0 -29 -19.5 -50.5t-64.5 -50.5l-301 -182h-74z" />
    <glyph glyph-name="icircumflex" unicode="&#xee;" horiz-adv-x="512" 
d="M143 0q15 182 15 592q0 245 -15 389q47 -8 103 -8q57 0 104 8q-14 -125 -14 -363q0 -402 14 -618q-58 10 -104 10q-45 0 -103 -10zM-39 1116l227 348h134l229 -348h-74l-221 195l-221 -195h-74z" />
    <glyph glyph-name="idieresis" unicode="&#xef;" horiz-adv-x="512" 
d="M143 0q15 182 15 592q0 245 -15 389q47 -8 103 -8q57 0 104 8q-14 -125 -14 -363q0 -402 14 -618q-58 10 -104 10q-45 0 -103 -10zM-39 1280q0 44 34.5 78.5t80.5 34.5q45 0 77.5 -33.5t32.5 -79.5q0 -50 -30.5 -82.5t-79.5 -32.5q-50 0 -82.5 32.5t-32.5 82.5zM326 1280
q0 45 33.5 79t78.5 34q46 0 79.5 -33.5t33.5 -79.5q0 -50 -32 -82.5t-81 -32.5q-47 0 -79.5 33t-32.5 82z" />
    <glyph glyph-name="eth" unicode="&#xf0;" horiz-adv-x="1118" 
d="M727 1108q84 -85 135 -147.5t96.5 -139.5t65.5 -161.5t20 -186.5q0 -227 -133 -362.5t-354 -135.5q-227 0 -357 133.5t-130 366.5q0 223 130.5 360.5t329.5 137.5q86 0 152 -19l-240 236q-148 -133 -200 -195l-72 68q71 54 211 186q-151 139 -229 201l120 111
q11 -12 217 -211q144 126 205 206l82 -63q-87 -70 -227 -205zM834 475q0 202 -73 310t-202 108q-130 0 -204 -109.5t-74 -308.5q0 -196 74.5 -307t203.5 -111q127 0 201 110t74 308z" />
    <glyph glyph-name="ntilde" unicode="&#xf1;" horiz-adv-x="1130" 
d="M137 0q15 161 15 590q0 257 -15 391q44 -8 99 -8q52 0 96 8q-4 -100 -6 -176q126 201 350 201q77 0 141.5 -27.5t106.5 -75.5q41 -50 52 -106.5t11 -151.5v-301q0 -211 8 -344q-55 10 -100 10q-44 0 -102 -10q14 312 14 459v104q0 93 -8.5 146.5t-38.5 91.5
q-63 78 -174 78q-134 0 -195 -100.5t-61 -309.5q0 -212 10 -469q-55 10 -100 10t-103 -10zM848 1434q-22 -113 -71.5 -171.5t-123.5 -58.5q-24 0 -51 6l-106 27q-45 10 -54 10q-43 0 -65.5 -20t-36.5 -70h-57q23 117 70.5 173t123.5 56q35 0 66 -8l108 -26q24 -6 51 -6
q68 0 89 88h57z" />
    <glyph glyph-name="ograve" unicode="&#xf2;" horiz-adv-x="1130" 
d="M1069 489q0 -234 -137.5 -374t-366.5 -140q-235 0 -369.5 136.5t-134.5 377.5q0 235 137.5 376t366.5 141q233 0 368.5 -139t135.5 -378zM858 489q0 212 -77.5 326.5t-213.5 114.5q-138 0 -216.5 -115.5t-78.5 -325.5q0 -208 79 -323t216 -115q135 0 213 115t78 323z
M741 1116h-73l-301 182q-45 29 -64.5 50.5t-19.5 50.5q0 32 22 56t53 24q51 0 107 -62z" />
    <glyph glyph-name="oacute" unicode="&#xf3;" horiz-adv-x="1130" 
d="M1069 489q0 -234 -137.5 -374t-366.5 -140q-235 0 -369.5 136.5t-134.5 377.5q0 235 137.5 376t366.5 141q233 0 368.5 -139t135.5 -378zM858 489q0 212 -77.5 326.5t-213.5 114.5q-138 0 -216.5 -115.5t-78.5 -325.5q0 -208 79 -323t216 -115q135 0 213 115t78 323z
M389 1116l277 301q56 62 106 62q31 0 53.5 -24t22.5 -56q0 -29 -19.5 -50.5t-64.5 -50.5l-301 -182h-74z" />
    <glyph glyph-name="ocircumflex" unicode="&#xf4;" horiz-adv-x="1130" 
d="M1069 489q0 -234 -137.5 -374t-366.5 -140q-235 0 -369.5 136.5t-134.5 377.5q0 235 137.5 376t366.5 141q233 0 368.5 -139t135.5 -378zM858 489q0 212 -77.5 326.5t-213.5 114.5q-138 0 -216.5 -115.5t-78.5 -325.5q0 -208 79 -323t216 -115q135 0 213 115t78 323z
M270 1116l228 348h133l229 -348h-74l-221 195l-221 -195h-74z" />
    <glyph glyph-name="otilde" unicode="&#xf5;" horiz-adv-x="1130" 
d="M1069 489q0 -234 -137.5 -374t-366.5 -140q-235 0 -369.5 136.5t-134.5 377.5q0 235 137.5 376t366.5 141q233 0 368.5 -139t135.5 -378zM858 489q0 212 -77.5 326.5t-213.5 114.5q-138 0 -216.5 -115.5t-78.5 -325.5q0 -208 79 -323t216 -115q135 0 213 115t78 323z
M848 1434q-22 -113 -71.5 -171.5t-123.5 -58.5q-24 0 -51 6l-106 27q-45 10 -54 10q-43 0 -65.5 -20t-36.5 -70h-57q23 117 70.5 173t123.5 56q35 0 66 -8l108 -26q24 -6 51 -6q68 0 89 88h57z" />
    <glyph glyph-name="odieresis" unicode="&#xf6;" horiz-adv-x="1130" 
d="M1069 489q0 -234 -137.5 -374t-366.5 -140q-235 0 -369.5 136.5t-134.5 377.5q0 235 137.5 376t366.5 141q233 0 368.5 -139t135.5 -378zM858 489q0 212 -77.5 326.5t-213.5 114.5q-138 0 -216.5 -115.5t-78.5 -325.5q0 -208 79 -323t216 -115q135 0 213 115t78 323z
M270 1280q0 44 34.5 78.5t80.5 34.5t78.5 -33.5t32.5 -79.5q0 -50 -31 -82.5t-80 -32.5t-82 32.5t-33 82.5zM635 1280q0 45 34 79t79 34q46 0 79 -33.5t33 -79.5q0 -50 -31.5 -82.5t-80.5 -32.5q-48 0 -80.5 33t-32.5 82z" />
    <glyph glyph-name="divide" unicode="&#xf7;" horiz-adv-x="1705" 
d="M854 1071q44 0 75.5 -32t31.5 -76q0 -43 -31 -75t-76 -32t-75.5 31t-30.5 76q0 44 31.5 76t74.5 32zM1452 659v-98h-1198v98h1198zM854 365q44 0 75.5 -31.5t31.5 -75.5q0 -43 -31 -74.5t-76 -31.5q-44 0 -75 31t-31 75t31.5 75.5t74.5 31.5z" />
    <glyph glyph-name="oslash" unicode="&#xf8;" horiz-adv-x="1130" 
d="M211 100q-150 160 -150 389q0 233 138.5 375t365.5 142q179 0 301 -84l152 200l67 -53l-159 -195q143 -137 143 -385q0 -231 -139 -372.5t-365 -141.5q-180 0 -293 78l-163 -213l-66 51zM819 733q-237 -274 -465 -571q76 -111 211 -111t214 115t79 323q0 147 -39 244z
M315 238q244 298 465 577q-80 115 -215 115q-138 0 -215.5 -115t-77.5 -326q0 -146 43 -251z" />
    <glyph glyph-name="ugrave" unicode="&#xf9;" horiz-adv-x="1130" 
d="M993 981q-14 -151 -14 -590q0 -266 14 -391q-55 10 -96 10q-43 0 -98 -10q1 25 4 84t4 92q-65 -103 -146.5 -152t-189.5 -49q-170 0 -249 91t-79 280v291q0 211 -8 344q47 -8 103 -8q58 0 102 8q-18 -390 -18 -610q0 -138 53 -203.5t168 -65.5q138 0 199 100t61 310
q0 216 -10 469q47 -8 100 -8q56 0 100 8zM741 1116h-73l-301 182q-45 29 -64.5 50.5t-19.5 50.5q0 32 22 56t53 24q51 0 107 -62z" />
    <glyph glyph-name="uacute" unicode="&#xfa;" horiz-adv-x="1130" 
d="M993 981q-14 -151 -14 -590q0 -266 14 -391q-55 10 -96 10q-43 0 -98 -10q1 25 4 84t4 92q-65 -103 -146.5 -152t-189.5 -49q-170 0 -249 91t-79 280v291q0 211 -8 344q47 -8 103 -8q58 0 102 8q-18 -390 -18 -610q0 -138 53 -203.5t168 -65.5q138 0 199 100t61 310
q0 216 -10 469q47 -8 100 -8q56 0 100 8zM389 1116l277 301q56 62 106 62q31 0 53.5 -24t22.5 -56q0 -29 -19.5 -50.5t-64.5 -50.5l-301 -182h-74z" />
    <glyph glyph-name="ucircumflex" unicode="&#xfb;" horiz-adv-x="1130" 
d="M993 981q-14 -151 -14 -590q0 -266 14 -391q-55 10 -96 10q-43 0 -98 -10q1 25 4 84t4 92q-65 -103 -146.5 -152t-189.5 -49q-170 0 -249 91t-79 280v291q0 211 -8 344q47 -8 103 -8q58 0 102 8q-18 -390 -18 -610q0 -138 53 -203.5t168 -65.5q138 0 199 100t61 310
q0 216 -10 469q47 -8 100 -8q56 0 100 8zM270 1116l228 348h133l229 -348h-74l-221 195l-221 -195h-74z" />
    <glyph glyph-name="udieresis" unicode="&#xfc;" horiz-adv-x="1130" 
d="M993 981q-14 -151 -14 -590q0 -266 14 -391q-55 10 -96 10q-43 0 -98 -10q1 25 4 84t4 92q-65 -103 -146.5 -152t-189.5 -49q-170 0 -249 91t-79 280v291q0 211 -8 344q47 -8 103 -8q58 0 102 8q-18 -390 -18 -610q0 -138 53 -203.5t168 -65.5q138 0 199 100t61 310
q0 216 -10 469q47 -8 100 -8q56 0 100 8zM270 1280q0 44 34.5 78.5t80.5 34.5t78.5 -33.5t32.5 -79.5q0 -50 -31 -82.5t-80 -32.5t-82 32.5t-33 82.5zM635 1280q0 45 34 79t79 34q46 0 79 -33.5t33 -79.5q0 -50 -31.5 -82.5t-80.5 -32.5q-48 0 -80.5 33t-32.5 82z" />
    <glyph glyph-name="yacute" unicode="&#xfd;" horiz-adv-x="995" 
d="M438 -35q-187 503 -430 1016q55 -8 121 -8q69 0 121 8q48 -174 112 -332l183 -456l168 428q39 97 118 360q39 -8 84 -8q46 0 82 8q-489 -1007 -659 -1540q-45 10 -82 10q-36 0 -84 -10zM322 1116l276 301q56 62 107 62q31 0 53 -24t22 -56q0 -29 -19.5 -50.5t-64.5 -50.5
l-301 -182h-73z" />
    <glyph glyph-name="thorn" unicode="&#xfe;" horiz-adv-x="1138" 
d="M848 483q0 196 -72 302t-198 106q-127 0 -201 -106.5t-74 -297.5q0 -197 73.5 -305t201.5 -108q124 0 197 108t73 301zM125 -559q14 269 14 665q0 1157 -14 1430q44 -8 98 -8q52 0 96 8q-14 -315 -14 -627v-108q59 106 140 155.5t196 49.5q191 0 303.5 -139t112.5 -382
q0 -234 -113.5 -372t-298.5 -138q-117 0 -197.5 42.5t-132.5 132.5v-300q0 -276 13 -409q-55 10 -101 10q-44 0 -102 -10z" />
    <glyph glyph-name="ydieresis" unicode="&#xff;" horiz-adv-x="995" 
d="M438 -35q-187 503 -430 1016q55 -8 121 -8q69 0 121 8q48 -174 112 -332l183 -456l168 428q39 97 118 360q39 -8 84 -8q46 0 82 8q-489 -1007 -659 -1540q-45 10 -82 10q-36 0 -84 -10zM203 1280q0 44 34.5 78.5t79.5 34.5q46 0 78.5 -33.5t32.5 -79.5q0 -50 -31 -82.5
t-80 -32.5t-81.5 32.5t-32.5 82.5zM567 1280q0 45 34 79t79 34q46 0 79.5 -33.5t33.5 -79.5q0 -50 -32 -82.5t-81 -32.5q-48 0 -80.5 33t-32.5 82z" />
    <glyph glyph-name="dotlessi" unicode="&#x131;" horiz-adv-x="512" 
d="M143 0q15 182 15 592q0 245 -15 389q47 -8 103 -8q57 0 104 8q-14 -125 -14 -363q0 -402 14 -618q-58 10 -104 10q-45 0 -103 -10z" />
    <glyph glyph-name="Lslash" unicode="&#x141;" horiz-adv-x="952" 
d="M174 0q24 308 27 618q-94 -62 -172 -126l-54 86q124 72 226 145q0 363 -27 676q52 -8 119 -8t119 8q-15 -255 -15 -488v-90q202 148 252 183l51 -82l-424 -287q41 27 121 82q0 -315 9 -608h206q174 0 338 34q-6 -38 -6 -73q0 -36 6 -70q-184 6 -379 6q-191 0 -397 -6z
" />
    <glyph glyph-name="lslash" unicode="&#x142;" horiz-adv-x="530" 
d="M162 0q16 278 16 575v95q-22 -16 -153 -119l-50 84q104 63 203 133q2 92 2 258q0 304 -18 510q47 -8 102 -8q58 0 105 8q-21 -236 -21 -504q0 -24 1 -77t1 -81l-43 -32q0 1 18.5 15t72 55.5t104.5 80.5l49 -84q-145 -91 -201 -129q0 -482 19 -780q-58 10 -105 10
q-44 0 -102 -10z" />
    <glyph glyph-name="OE" unicode="&#x152;" horiz-adv-x="2113" 
d="M797 1343q-223 0 -358.5 -170t-135.5 -468q0 -299 133 -468t357 -169q227 0 376 184q72 89 101.5 202t29.5 273q0 303 -128.5 459.5t-374.5 156.5zM1296 225q-183 -250 -536 -250q-314 0 -498 192t-184 521q0 224 89.5 391.5t251 256.5t374.5 89q154 0 277 -51.5
t233 -163.5q0 63 -7 189q109 -10 271 -10q271 0 403 10q-6 -27 -6 -64q0 -31 6 -69q-114 22 -311 22h-172v-485h192q108 0 258 18q-6 -35 -6 -69t6 -64q-139 19 -241 19h-209v-588h215q179 0 291 22q-8 -46 -8 -69q0 -22 8 -72q-258 12 -353 12q-180 0 -352 -12q8 106 8 182
v43z" />
    <glyph glyph-name="oe" unicode="&#x153;" horiz-adv-x="1839" 
d="M1061 584h104q74 0 422 4q2 16 2 45q0 139 -67 216t-183 77q-122 0 -195 -88t-83 -254zM860 489q0 211 -78.5 326t-216.5 115t-217.5 -115.5t-79.5 -325.5q0 -207 79.5 -322.5t217.5 -115.5q137 0 216 115t79 323zM963 156q-160 -181 -422 -181q-230 0 -357 134t-127 380
q0 235 137.5 376t366.5 141q257 0 400 -183q70 95 163.5 139t221.5 44q207 0 325.5 -119t118.5 -328q0 -40 -2 -63q-344 8 -469 8q-100 0 -256 -4v-25q0 -197 91 -305.5t253 -108.5q98 0 177.5 34.5t129.5 97.5l27 -7q-12 -62 -15 -118q-162 -95 -376 -95q-138 0 -232 44
t-155 139z" />
    <glyph glyph-name="Scaron" unicode="&#x160;" horiz-adv-x="1048" 
d="M115 307l18 4q44 -118 133 -180.5t211 -62.5q139 0 220 75.5t81 200.5q0 51 -14.5 91t-36.5 68t-65.5 55t-83.5 45.5t-109 45.5q-99 38 -161 71t-111.5 77.5t-71 102t-21.5 134.5q0 183 118 288t327 105q188 0 346 -88q-48 -99 -66 -200h-20q-20 101 -92 155t-189 54
q-118 0 -188 -66t-70 -174q0 -54 18.5 -94.5t60.5 -72.5t90 -55t128 -52q105 -39 170.5 -72t118.5 -79.5t76.5 -107t23.5 -143.5q0 -197 -141.5 -329t-365.5 -132q-233 0 -373 119q34 106 39 217zM819 1884l-227 -348h-133l-230 348h74l221 -194l221 194h74z" />
    <glyph glyph-name="scaron" unicode="&#x161;" horiz-adv-x="888" 
d="M156 244h18q23 -97 82 -143t160 -46q105 0 163 47t58 131q0 20 -3 37t-11.5 31t-15.5 24t-24 20.5t-27.5 16.5t-35.5 15t-38.5 13.5t-46 14.5t-48.5 15q-141 44 -204.5 105.5t-63.5 164.5q0 141 100 228.5t266 87.5q129 0 267 -66q-7 -22 -28 -82.5t-32 -95.5h-20
q-25 160 -203 160q-87 0 -140 -45.5t-53 -118.5q0 -37 11 -62t47.5 -45t59 -28t90.5 -29q25 -8 38 -12q74 -23 122 -45.5t84.5 -54.5t52.5 -75t16 -102q0 -152 -108 -241t-298 -89q-156 0 -289 62q9 40 29 114.5t25 92.5zM739 1464l-227 -348h-133l-229 348h73l221 -194
l222 194h73z" />
    <glyph glyph-name="Ydieresis" unicode="&#x178;" horiz-adv-x="1062" 
d="M428 0q21 170 21 408v172q-234 431 -492 819q63 -8 137 -8t129 8q61 -161 191 -385l174 -299q194 320 352 684q39 -8 88 -8q51 0 90 8q-147 -231 -282 -459l-189 -317v-263q0 -182 12 -360q-65 10 -118 10q-51 0 -113 -10zM238 1700q0 44 34 78t80 34t78.5 -33t32.5 -79
q0 -50 -31 -82.5t-80 -32.5t-81.5 32.5t-32.5 82.5zM602 1700q0 44 34 78t79 34q46 0 79 -33t33 -79q0 -50 -31.5 -82.5t-80.5 -32.5q-48 0 -80.5 33t-32.5 82z" />
    <glyph glyph-name="Zcaron" unicode="&#x17d;" horiz-adv-x="1241" 
d="M12 0v53q476 625 885 1231h-246q-373 0 -561 -31q8 33 8 74t-8 72q192 -15 543 -15q371 0 571 15v-45q-503 -641 -901 -1235h338q230 0 563 37q-8 -33 -8 -76q0 -44 8 -80q-162 14 -692 14q-361 0 -500 -14zM915 1884l-227 -348h-133l-229 348h73l222 -194l221 194h73z
" />
    <glyph glyph-name="zcaron" unicode="&#x17e;" horiz-adv-x="972" 
d="M25 0v45q344 439 602 834h-221q-143 0 -312 -31q6 38 6 70q0 33 -6 63q148 -12 395 -12q289 0 420 12v-43q-317 -387 -614 -836h223q131 0 375 29q-8 -46 -8 -65q0 -20 8 -66q-341 12 -553 12q-168 0 -315 -12zM782 1464l-227 -348h-133l-229 348h73l221 -194l222 194h73
z" />
    <glyph glyph-name="florin" unicode="&#x192;" horiz-adv-x="1124" 
d="M553 199q-40 -189 -83 -311t-114 -210q-130 -161 -272 -161q-61 0 -102 24q30 87 41 168q70 -67 143 -67q58 0 86.5 37.5t46.5 127.5l168 859h-55q-46 0 -164 -4q18 44 18 88q108 -9 217 -9q53 293 180 457t273 164q68 0 117 -35q-47 -68 -62 -153q-66 63 -137 63
q-49 0 -77.5 -32t-39.5 -71.5t-29 -141.5q-2 -11 -3.5 -17.5t-3 -17t-3.5 -19.5l-32 -188h30q69 0 174 10q-14 -47 -14 -76q0 -4 1 -12.5t1 -12.5q-74 9 -141 9q-45 0 -68 -2z" />
    <glyph glyph-name="circumflex" unicode="&#x2c6;" 
d="M217 1116l227 348h134l229 -348h-74l-221 195l-221 -195h-74z" />
    <glyph glyph-name="caron" unicode="&#x2c7;" 
d="M807 1464l-227 -348h-134l-229 348h74l221 -194l221 194h74z" />
    <glyph glyph-name="breve" unicode="&#x2d8;" 
d="M211 1430h65q19 -71 75 -102.5t161 -31.5t160.5 31.5t72.5 102.5h66q-22 -137 -97.5 -208t-201.5 -71t-202.5 71t-98.5 208z" />
    <glyph glyph-name="dotaccent" unicode="&#x2d9;" 
d="M395 1280q0 47 35 83t82 36t83 -36t36 -83q0 -51 -34 -85t-85 -34t-84 34t-33 85z" />
    <glyph glyph-name="ring" unicode="&#x2da;" 
d="M506 1098q-106 0 -174 66t-68 169q0 109 76.5 182.5t187.5 73.5q102 0 169 -66.5t67 -168.5q0 -109 -74.5 -182.5t-183.5 -73.5zM518 1528q-70 0 -111.5 -53.5t-41.5 -149.5q0 -77 39 -120.5t106 -43.5q71 0 111.5 51.5t40.5 143.5q0 81 -38.5 126.5t-105.5 45.5z" />
    <glyph glyph-name="ogonek" unicode="&#x2db;" 
d="M631 35q-86 -66 -130 -132.5t-44 -123.5q0 -60 23.5 -92.5t66.5 -32.5q71 0 125 72l28 -17q-36 -76 -93.5 -115.5t-125.5 -39.5q-72 0 -114.5 41t-42.5 110q0 164 260 330h47z" />
    <glyph glyph-name="tilde" unicode="&#x2dc;" 
d="M795 1434q-22 -113 -71.5 -171.5t-123.5 -58.5q-24 0 -51 6l-107 27q-45 10 -53 10q-43 0 -65.5 -20t-36.5 -70h-58q23 117 71 173t124 56q34 0 65 -8l109 -26q24 -6 51 -6q67 0 88 88h58z" />
    <glyph glyph-name="hungarumlaut" unicode="&#x2dd;" 
d="M322 1116l133 275q41 86 96 86q28 0 50 -21.5t22 -50.5q0 -35 -56 -94l-184 -195h-61zM567 1116l174 285q45 74 99 74q31 0 51 -20.5t20 -53.5q0 -42 -63 -96l-221 -189h-60z" />
    <glyph glyph-name="endash" unicode="&#x2013;" 
d="M0 434v127h1024v-127h-1024z" />
    <glyph glyph-name="emdash" unicode="&#x2014;" horiz-adv-x="2048" 
d="M0 434v127h2048v-127h-2048z" />
    <glyph glyph-name="quoteleft" unicode="&#x2018;" horiz-adv-x="561" 
d="M457 1413l-121 -422q-22 -74 -48 -106.5t-73 -32.5q-35 0 -59.5 22t-24.5 54q0 45 55 133l222 364z" />
    <glyph glyph-name="quoteright" unicode="&#x2019;" horiz-adv-x="561" 
d="M135 866l119 422q21 73 48 105t75 32q35 0 58.5 -21.5t23.5 -53.5q0 -48 -53 -133l-224 -363z" />
    <glyph glyph-name="quotesinglbase" unicode="&#x201a;" horiz-adv-x="561" 
d="M84 -299l119 422q21 73 48.5 106t74.5 33q35 0 58.5 -22t23.5 -54q0 -43 -56 -133l-221 -364z" />
    <glyph glyph-name="quotedblleft" unicode="&#x201c;" horiz-adv-x="935" 
d="M829 1413l-120 -422q-22 -74 -48 -106.5t-73 -32.5q-35 0 -59.5 22t-24.5 54q0 45 55 133l221 364zM453 1413l-121 -422q-22 -74 -48 -106.5t-73 -32.5q-35 0 -59.5 22t-24.5 54q0 45 55 133l221 364z" />
    <glyph glyph-name="quotedblright" unicode="&#x201d;" horiz-adv-x="935" 
d="M158 866l118 422q21 73 48 105t75 32q35 0 58.5 -21.5t23.5 -53.5q0 -48 -53 -133l-223 -363zM532 866l121 422q21 73 47.5 105t73.5 32q35 0 59.5 -21.5t24.5 -53.5q0 -45 -55 -133l-221 -363z" />
    <glyph glyph-name="quotedblbase" unicode="&#x201e;" horiz-adv-x="935" 
d="M84 -299l119 422q21 73 48.5 106t74.5 33q35 0 58.5 -22t23.5 -54q0 -43 -56 -133l-221 -364zM459 -299l121 422q22 74 47.5 106.5t72.5 32.5q35 0 59.5 -22t24.5 -54q0 -45 -55 -133l-221 -364z" />
    <glyph glyph-name="dagger" unicode="&#x2020;" horiz-adv-x="1011" 
d="M578 236q0 -131 18 -263q-44 9 -90 9q-44 0 -90 -9q18 166 18 263v571h-147q-105 0 -207 -21q6 44 6 82t-6 76q105 -18 207 -18h147v241q0 122 -18 230q66 -8 94 -8q32 0 86 8q-18 -87 -18 -230v-241h147q120 0 207 18q-6 -40 -6 -82q0 -39 6 -76q-122 21 -207 21h-147
v-571z" />
    <glyph glyph-name="daggerdbl" unicode="&#x2021;" horiz-adv-x="1011" 
d="M434 893h-147q-105 0 -207 -21q6 44 6 82t-6 76q105 -18 207 -18h147v155q0 122 -18 230q66 -8 94 -8q32 0 86 8q-18 -87 -18 -230v-155h147q120 0 207 18q-6 -40 -6 -82q0 -38 6 -76q-123 21 -207 21h-147v-410h147q105 0 207 21q-6 -41 -6 -82q0 -38 6 -76
q-111 19 -207 19h-147v-129q0 -131 18 -263q-44 9 -90 9q-44 0 -90 -9q18 166 18 263v129h-147q-115 0 -207 -19q6 44 6 80q0 39 -6 76q111 -19 207 -19h147v410z" />
    <glyph glyph-name="bullet" unicode="&#x2022;" horiz-adv-x="1208" 
d="M307 762q0 123 87 209t210 86q122 0 208.5 -86t86.5 -209q0 -122 -87 -209.5t-210 -87.5t-209 87t-86 210z" />
    <glyph glyph-name="ellipsis" unicode="&#x2026;" horiz-adv-x="2048" 
d="M211 104q0 54 38 91.5t93 37.5t93 -37t38 -92q0 -54 -38 -92.5t-93 -38.5q-54 0 -92.5 38t-38.5 93zM893 104q0 54 38 91.5t93 37.5t93 -37t38 -92q0 -54 -38 -92.5t-93 -38.5q-54 0 -92.5 38t-38.5 93zM1577 104q0 54 38 91.5t93 37.5t93 -37t38 -92q0 -54 -38 -92.5
t-93 -38.5q-54 0 -92.5 38t-38.5 93z" />
    <glyph glyph-name="perthousand" unicode="&#x2030;" horiz-adv-x="2301" 
d="M1518 328q0 -142 -91 -235t-229 -93q-139 0 -228 91.5t-89 236.5q0 142 89.5 234.5t227.5 92.5q141 0 230.5 -90t89.5 -237zM1198 61q76 0 113 73t37 224q0 236 -150 236q-149 0 -149 -295q0 -238 149 -238zM2265 328q0 -143 -89.5 -235.5t-227.5 -92.5
q-139 0 -229.5 91.5t-90.5 236.5q0 142 91 234.5t229 92.5q140 0 228.5 -90t88.5 -237zM1948 61q76 0 111.5 72.5t35.5 224.5q0 236 -147 236q-150 0 -150 -295q0 -238 150 -238zM678 999q0 -142 -90 -234.5t-228 -92.5q-139 0 -229 91t-90 236q0 142 90.5 235t228.5 93
q140 0 229 -90.5t89 -237.5zM360 733q76 0 113 73t37 224q0 238 -150 238q-149 0 -149 -295q0 -240 149 -240zM1190 1522h102l-950 -1712h-102z" />
    <glyph glyph-name="guilsinglleft" unicode="&#x2039;" horiz-adv-x="550" 
d="M463 918l-232 -426l232 -429l-60 -57l-329 486l329 483z" />
    <glyph glyph-name="guilsinglright" unicode="&#x203a;" horiz-adv-x="550" 
d="M63 55l234 428l-234 428l60 56l332 -484l-332 -483z" />
    <glyph glyph-name="fraction" unicode="&#x2044;" horiz-adv-x="342" 
d="M-342 -190l920 1712h104l-920 -1712h-104z" />
    <glyph glyph-name="Euro" unicode="&#x20ac;" horiz-adv-x="1124" 
d="M903 594l-29 -98q-205 6 -409 6h-64q15 -222 100.5 -335.5t233.5 -113.5q106 0 184.5 54.5t157.5 173.5l23 -11q-18 -82 -21 -170q-98 -68 -178.5 -99.5t-177.5 -31.5q-214 0 -353 140t-173 393q-80 0 -179 -6l29 98q73 -6 141 -6q-1 17 -2 36.5t-1.5 30t-0.5 15.5
q0 20 4 90q-86 0 -172 -6l29 98q141 -6 152 -6q35 252 173.5 385t364.5 133q178 0 383 -111q-43 -87 -55 -198h-23q-111 225 -299 225q-145 0 -232 -110.5t-106 -323.5h246q84 0 330 6l-29 -98q-258 6 -487 6h-66q-1 -17 -2 -40t-1.5 -35t-0.5 -19q0 -39 2 -78h258
q41 0 250 6z" />
    <glyph glyph-name="trademark" unicode="&#x2122;" horiz-adv-x="1705" 
d="M694 1454v-57h-172v-473h-82v473h-176v57h430zM938 1454l166 -422l156 422h116v-530h-71v467l-177 -467h-49l-186 467v-467h-72v530h117z" />
    <glyph glyph-name="minus" unicode="&#x2212;" horiz-adv-x="1705" 
d="M1452 659v-98h-1198v98h1198z" />
    <glyph glyph-name="fi" unicode="&#xfb01;" horiz-adv-x="1146" 
d="M754 1327q0 50 32.5 82.5t83.5 32.5q56 0 86.5 -31t30.5 -86q0 -50 -29.5 -79t-80.5 -29q-57 0 -90 30t-33 80zM768 0q12 145 12 592q0 274 -12 389q47 -8 102 -8q56 0 103 8q-15 -134 -15 -363q0 -387 15 -618q-58 10 -103 10q-44 0 -102 -10zM174 0q16 152 16 489v408
h-22q-61 0 -150 -14q7 31 7 51q0 22 -7 47q57 -8 132 -8h40q4 124 40.5 232.5t90.5 179t117.5 111t124.5 40.5q43 0 90 -12q-16 -71 -26 -181q-76 33 -140 33q-145 0 -145 -162q0 -42 8 -94l21 -147h49q93 0 174 8q-8 -21 -8 -49t8 -49q-116 14 -195 14h-28v-346
q0 -311 12 -551q-58 10 -104 10q-47 0 -105 -10z" />
    <glyph glyph-name="fl" unicode="&#xfb02;" horiz-adv-x="1146" 
d="M768 0q8 131 8 176q0 101 2 385t2 467v180q0 206 -12 328q47 -8 102 -8q56 0 103 8q-15 -149 -15 -381v-102q0 -881 15 -1053q-58 10 -103 10q-44 0 -102 -10zM174 0q16 152 16 489v408h-22q-61 0 -150 -14q7 31 7 51q0 22 -7 47q57 -8 132 -8h40q4 124 40.5 232.5
t90.5 179t117.5 111t124.5 40.5q43 0 90 -12q-16 -71 -26 -181q-76 33 -140 33q-145 0 -145 -162q0 -42 8 -94l21 -147h49q93 0 174 8q-8 -21 -8 -49t8 -49q-116 14 -195 14h-28v-346q0 -311 12 -551q-58 10 -104 10q-47 0 -105 -10z" />
    </font>
</defs>
</svg>
